<?xml version="1.0" encoding="utf-8"?>
<!-- Generator: Adobe Illustrator 23.0.3, SVG Export Plug-In . SVG Version: 6.00 Build 0)  -->
<svg version="1.1" id="icon" xmlns="http://www.w3.org/2000/svg" xmlns:xlink="http://www.w3.org/1999/xlink" x="0px" y="0px"
	 viewBox="0 0 29.11 28.88" style="enable-background:new 0 0 29.11 28.88;" xml:space="preserve">
<style type="text/css">
	.st0{stroke-miterlimit:10;}
	.st1{stroke-width:0.5;stroke-miterlimit:10;}
</style>
<g>
	<path class="st0" d="M28.54,13.25c-0.08-0.13-0.21-0.22-0.36-0.24L9.88,10.32c-0.28-0.03-0.53,0.15-0.57,0.42
		c-0.04,0.27,0.15,0.53,0.42,0.57l17.7,2.85l-3,8.34H11.38L6.15,8.82C6.08,8.63,5.89,8.5,5.68,8.5H1.5c-0.28,0-1-0.28-1,0V10
		c0,0.28,0.22,0.5,0.5,0.5c0.28,0,0.5-0.22,0.5-0.5V9.5h3.84l5.22,13.68c0.07,0.19,0.26,0.32,0.47,0.32h13.75
		c0.21,0,0.4-0.38,0.47-0.58l3.33-9.12C28.63,13.66,28.62,13.38,28.54,13.25z"/>
	<path class="st1" d="M14.29,23.57c-1.39,0-2.53,1.13-2.53,2.53c0,1.39,1.13,2.53,2.53,2.53c1.39,0,2.53-1.13,2.53-2.53
		C16.82,24.7,15.69,23.57,14.29,23.57z M14.29,27.63c-0.84,0-1.53-0.68-1.53-1.53c0-0.84,0.68-1.53,1.53-1.53
		c0.84,0,1.53,0.68,1.53,1.53C15.82,26.94,15.14,27.63,14.29,27.63z"/>
	<path class="st1" d="M21.52,23.57c-1.39,0-2.53,1.13-2.53,2.53c0,1.39,1.13,2.53,2.53,2.53c1.39,0,2.53-1.13,2.53-2.53
		C24.04,24.7,22.91,23.57,21.52,23.57z M21.52,27.63c-0.84,0-1.53-0.68-1.53-1.53c0-0.84,0.68-1.53,1.53-1.53
		c0.84,0,1.53,0.68,1.53,1.53C23.04,26.94,22.36,27.63,21.52,27.63z"/>
	<path class="st0" d="M21,5.5h2.5V8c0,0.28,0.22,0.5,0.5,0.5c0.28,0,0.5-0.22,0.5-0.5V5.5H28c0.28,0,0.5-0.22,0.5-0.5
		S28.28,4.5,28,4.5h-3.5V1c0-0.28-0.22-0.5-0.5-0.5c-0.28,0-0.5,0.22-0.5,0.5v3.5H21c-0.28,0-0.5,0.22-0.5,0.5S20.72,5.5,21,5.5z"/>
</g>
</svg>
