<?xml version="1.0" encoding="utf-8"?>
<!-- Generator: Adobe Illustrator 23.0.3, SVG Export Plug-In . SVG Version: 6.00 Build 0)  -->
<svg version="1.1" id="Isolation_Mode" xmlns="http://www.w3.org/2000/svg" xmlns:xlink="http://www.w3.org/1999/xlink" x="0px"
	 y="0px" viewBox="0 0 29 20.78" style="enable-background:new 0 0 29 20.78;" xml:space="preserve">
<style type="text/css">
	.st0{stroke-miterlimit:10;}
</style>
<path class="st0" d="M28,6.28h-4.04c-0.02-1-0.06-0.41-0.12-0.48l-5-5.13c-0.2-0.2-0.51-0.26-0.71-0.06c-0.2,0.2-0.2,0.73,0,0.93
	l4.52,4.74H6.82l4.52-4.77c0.2-0.2,0.2-0.64,0-0.83s-0.51-0.26-0.71-0.06l-5,5.22C5.57,5.9,5.53,5.28,5.51,6.28H1
	c-0.28,0-0.5,0.22-0.5,0.5s0.22,0.5,0.5,0.5h1.87l2.63,12.6c0.05,0.23,0.25,0.4,0.49,0.4h17.5c0.24,0,0.45-0.17,0.49-0.41L26.4,7.28
	H28c0.28,0,0.5-0.22,0.5-0.5S28.28,6.28,28,6.28z M23.08,19.28H6.39l-2.5-12h21.49L23.08,19.28z"/>
</svg>
