<?xml version="1.0" encoding="utf-8"?>
<!-- Generator: Adobe Illustrator 23.0.3, SVG Export Plug-In . SVG Version: 6.00 Build 0)  -->
<svg version="1.1" id="icon" xmlns="http://www.w3.org/2000/svg" xmlns:xlink="http://www.w3.org/1999/xlink" x="0px" y="0px"
	 viewBox="0 0 30.25 24.08" style="enable-background:new 0 0 30.25 24.08;" xml:space="preserve">
<style type="text/css">
	.st0{stroke-width:0.5;stroke-miterlimit:10;}
</style>
<path class="st0" d="M21.97,0.3c-2.81,0-5.4,1.47-6.84,3.82c-1.45-2.37-4.04-3.86-6.85-3.86c-4.43,0-8.03,3.65-8.03,8.15
	c0,2.02,0.76,3.31,1.91,5.26l0.01,0.01c0.02,0.06,0.06,0.12,0.1,0.17l12.5,9.83c0.1,0.1,0.23,0.16,0.37,0.16h0
	c0.14,0,0.28-0.06,0.37-0.17l12.46-9.83c0.04-0.05,0.07-0.1,0.1-0.16h0C29.23,11.71,30,10.42,30,8.39C30,3.93,26.4,0.3,21.97,0.3z
	 M27.17,13.24l-12.03,9.35L3.08,13.24l-0.05-0.09c-1.14-1.94-1.78-3.01-1.78-4.75c0-3.94,3.15-7.15,7.03-7.15
	c2.74,0,5.25,1.62,6.39,4.13c0.08,0.18,0.26,0.29,0.46,0.29s0.37-0.11,0.45-0.29c1.13-2.48,3.64-4.09,6.39-4.09
	C25.85,1.3,29,4.48,29,8.39C29,10.14,28.37,11.21,27.17,13.24z"/>
</svg>
