<?xml version="1.0" encoding="utf-8"?>
<!-- Generator: Adobe Illustrator 23.0.3, SVG Export Plug-In . SVG Version: 6.00 Build 0)  -->
<svg version="1.1" id="icon" xmlns="http://www.w3.org/2000/svg" xmlns:xlink="http://www.w3.org/1999/xlink" x="0px" y="0px"
	 viewBox="0 0 31 20" style="enable-background:new 0 0 31 20;" xml:space="preserve">
<style type="text/css">
	.st0{fill:#FF7013;stroke:#FF7013;stroke-miterlimit:10;}
	.st1{fill:#FF7013;stroke:#FF7013;stroke-width:0.5;stroke-miterlimit:10;}
</style>
<g>
	<path class="st0" d="M30.5,1c0-0.28-0.22-0.5-0.5-0.5H1C0.72,0.5,0.5,0.72,0.5,1v18c0,0.28,0.22,0.5,0.5,0.5h29
		c0.28,0,0.5-0.22,0.5-0.5V1z M29.5,18.5h-28v-17h28V18.5z"/>
	<path class="st1" d="M4.55,15.72c0.09,0.16,0.26,0.25,0.43,0.25c0.08,0,0.17-0.02,0.25-0.07l8.69-4.99l2,1.58
		c0.01,0.01,0.03,0.01,0.04,0.01c0.08,0.06,0.17,0.09,0.27,0.09c0.1,0,0.19-0.04,0.27-0.09c0.01-0.01,0.03,0,0.04-0.01l2-1.58
		l8.69,4.99c0.08,0.04,0.16,0.07,0.25,0.07c0.17,0,0.34-0.09,0.43-0.25c0.14-0.24,0.05-0.54-0.18-0.68l-8.34-4.79l8.4-6.64
		c0.22-0.17,0.25-0.49,0.08-0.7c-0.17-0.22-0.49-0.25-0.7-0.08l-10.94,8.64L5.3,2.83C5.08,2.66,4.77,2.69,4.6,2.91
		c-0.17,0.22-0.13,0.53,0.08,0.7l8.4,6.64l-8.34,4.79C4.5,15.17,4.42,15.48,4.55,15.72z"/>
</g>
</svg>
