<?xml version="1.0" encoding="utf-8"?>
<!-- Generator: Adobe Illustrator 23.0.3, SVG Export Plug-In . SVG Version: 6.00 Build 0)  -->
<svg version="1.1" id="icon" xmlns="http://www.w3.org/2000/svg" xmlns:xlink="http://www.w3.org/1999/xlink" x="0px" y="0px"
	 viewBox="0 0 30.5 30.5" style="enable-background:new 0 0 30.5 30.5;" xml:space="preserve">
<style type="text/css">
	.st0{fill:#FF7013;stroke:#FF7013;stroke-width:0.5;stroke-miterlimit:10;}
</style>
<g>
	<path class="st0" d="M7.88,30.25H2.63c-1.31,0-2.38-1.07-2.38-2.38V2.63c0-1.31,1.07-2.38,2.38-2.38h5.25
		c1.31,0,2.38,1.07,2.38,2.38v25.25C10.25,29.18,9.18,30.25,7.88,30.25z M2.63,1.25c-0.76,0-1.38,0.62-1.38,1.38v25.25
		c0,0.76,0.62,1.38,1.38,1.38h5.25c0.76,0,1.38-0.62,1.38-1.38V2.63c0-0.76-0.62-1.38-1.38-1.38H2.63z"/>
	<path class="st0" d="M29.75,29.25h-20c-0.28,0-0.5-0.22-0.5-0.5v-27c0-0.28,0.22-0.5,0.5-0.5h20c0.28,0,0.5,0.22,0.5,0.5v27
		C30.25,29.03,30.03,29.25,29.75,29.25z M10.25,28.25h19v-26h-19V28.25z"/>
	<path class="st0" d="M25.75,11.25h-12c-0.28,0-0.5-0.22-0.5-0.5v-5c0-0.28,0.22-0.5,0.5-0.5h12c0.28,0,0.5,0.22,0.5,0.5v5
		C26.25,11.03,26.03,11.25,25.75,11.25z M14.25,10.25h11v-4h-11V10.25z"/>
	<path class="st0" d="M17.75,24.75c-0.28,0-0.5-0.22-0.5-0.5v-11c0-0.28,0.22-0.5,0.5-0.5c0.28,0,0.5,0.22,0.5,0.5v11
		C18.25,24.53,18.03,24.75,17.75,24.75z"/>
	<path class="st0" d="M21.75,24.75c-0.28,0-0.5-0.22-0.5-0.5v-11c0-0.28,0.22-0.5,0.5-0.5c0.28,0,0.5,0.22,0.5,0.5v11
		C22.25,24.53,22.03,24.75,21.75,24.75z"/>
	<path class="st0" d="M25.25,17.25h-11c-0.28,0-0.5-0.22-0.5-0.5s0.22-0.5,0.5-0.5h11c0.28,0,0.5,0.22,0.5,0.5
		S25.53,17.25,25.25,17.25z"/>
	<path class="st0" d="M25.25,21.25h-11c-0.28,0-0.5-0.22-0.5-0.5s0.22-0.5,0.5-0.5h11c0.28,0,0.5,0.22,0.5,0.5
		S25.53,21.25,25.25,21.25z"/>
	<path class="st0" d="M25.75,25.25h-12c-0.28,0-0.5-0.22-0.5-0.5v-12c0-0.28,0.22-0.5,0.5-0.5h12c0.28,0,0.5,0.22,0.5,0.5v12
		C26.25,25.03,26.03,25.25,25.75,25.25z M14.25,24.25h11v-11h-11V24.25z"/>
</g>
</svg>
