<?xml version="1.0" encoding="utf-8"?>
<!-- Generator: Adobe Illustrator 23.0.3, SVG Export Plug-In . SVG Version: 6.00 Build 0)  -->
<svg version="1.1" id="icon" xmlns="http://www.w3.org/2000/svg" xmlns:xlink="http://www.w3.org/1999/xlink" x="0px" y="0px"
	 viewBox="0 0 28.58 28.7" style="enable-background:new 0 0 28.58 28.7;" xml:space="preserve">
<style type="text/css">
	.st0{stroke-width:0.75;stroke-miterlimit:10;}
</style>
<path class="st0" d="M27.66,25.02l-7.98-8.01c2.84-4.14,2.43-9.85-1.23-13.53c-2-2.01-4.66-3.11-7.49-3.11S5.47,1.48,3.47,3.49
	c-4.13,4.14-4.13,10.88,0,15.02c2,2.01,4.66,3.11,7.49,3.11c2.16,0,4.23-0.65,5.97-1.86l7.97,8.01c0.35,0.35,0.82,0.55,1.33,0.55
	s0.97-0.19,1.33-0.55l0.1-0.1C28.39,26.95,28.39,25.75,27.66,25.02z M4.18,17.81c-3.74-3.75-3.74-9.86,0-13.61
	c1.81-1.82,4.22-2.82,6.78-2.82s4.97,1,6.78,2.82c3.71,3.72,3.73,9.76,0.08,13.53l-0.17,0.17c-1.8,1.76-4.17,2.73-6.69,2.73
	C8.4,20.63,5.99,19.63,4.18,17.81z M26.95,26.97l-0.1,0.1c-0.33,0.33-0.91,0.33-1.24,0l-7.85-7.88l0.59-0.6
	c0.03-0.03,0.06-0.05,0.09-0.08c0.03-0.03,0.05-0.06,0.08-0.09l0.58-0.58l7.85,7.88C27.29,26.07,27.29,26.63,26.95,26.97z"/>
</svg>
