<?xml version="1.0" encoding="utf-8"?>
<!-- Generator: Adobe Illustrator 23.0.3, SVG Export Plug-In . SVG Version: 6.00 Build 0)  -->
<svg version="1.1" id="icon" xmlns="http://www.w3.org/2000/svg" xmlns:xlink="http://www.w3.org/1999/xlink" x="0px" y="0px"
	 viewBox="0 0 29.33 26.5" style="enable-background:new 0 0 29.33 26.5;" xml:space="preserve">
<style type="text/css">
	.st0{stroke:#000000;stroke-width:0.5;stroke-miterlimit:10;}
</style>
<g>
	<path class="st0" d="M2.84,25.09c-1.04,0-1.78-0.29-2.21-0.88c-2-2.7,4.16-9.51,10.96-14.55C18.4,4.63,26.7,0.73,28.7,3.42
		c0.48,0.65,0.51,1.57,0.07,2.73c-0.1,0.26-0.38,0.39-0.64,0.29c-0.26-0.1-0.39-0.38-0.29-0.64c0.21-0.56,0.39-1.33,0.06-1.78
		c-1.17-1.58-7.91,0.68-15.71,6.46C4.39,16.25,0.26,22.04,1.43,23.62c0.37,0.5,1.29,0.51,1.99,0.44c0.27-0.02,0.52,0.17,0.55,0.44
		c0.03,0.27-0.17,0.52-0.44,0.55C3.29,25.08,3.06,25.09,2.84,25.09z"/>
	<g>
		<path class="st0" d="M14.83,26.25c-7.17,0-13-5.83-13-13c0-7.17,5.83-13,13-13c7.17,0,13,5.83,13,13
			C27.83,20.42,22,26.25,14.83,26.25z M14.83,1.25c-6.62,0-12,5.38-12,12c0,6.62,5.38,12,12,12s12-5.38,12-12
			C26.83,6.63,21.44,1.25,14.83,1.25z"/>
		<path class="st0" d="M26.96,14h-24c-0.28,0-0.5-0.22-0.5-0.5c0-0.28,0.22-0.5,0.5-0.5h24c0.28,0,0.5,0.22,0.5,0.5
			C27.46,13.77,27.24,14,26.96,14z"/>
		<path class="st0" d="M24.96,21h-20c-0.28,0-0.5-0.22-0.5-0.5c0-0.28,0.22-0.5,0.5-0.5h20c0.28,0,0.5,0.22,0.5,0.5
			C25.46,20.77,25.24,21,24.96,21z"/>
		<path class="st0" d="M23.96,6h-19c-0.28,0-0.5-0.22-0.5-0.5S4.69,5,4.96,5h19c0.28,0,0.5,0.22,0.5,0.5S24.24,6,23.96,6z"/>
		<path class="st0" d="M14.83,26.18c-0.16,0-0.32-0.08-0.42-0.22c-0.15-0.23-0.09-0.54,0.14-0.69c3.72-2.48,6.03-7.08,6.03-12.01
			c0-4.93-2.31-9.54-6.03-12.01c-0.23-0.15-0.29-0.46-0.14-0.69c0.15-0.23,0.46-0.29,0.69-0.14c3.99,2.66,6.47,7.58,6.47,12.84
			S19.1,23.44,15.11,26.1C15.02,26.16,14.92,26.18,14.83,26.18z"/>
		<path class="st0" d="M14.83,26.18c-0.1,0-0.19-0.03-0.28-0.08c-3.99-2.66-6.47-7.58-6.47-12.84s2.48-10.18,6.47-12.84
			c0.23-0.15,0.54-0.09,0.69,0.14s0.09,0.54-0.14,0.69c-3.72,2.47-6.03,7.08-6.03,12.01c0,4.93,2.31,9.54,6.03,12.01
			c0.23,0.15,0.29,0.46,0.14,0.69C15.15,26.11,14.99,26.18,14.83,26.18z"/>
	</g>
</g>
</svg>
