<?xml version="1.0" encoding="utf-8"?>
<!-- Generator: Adobe Illustrator 23.0.3, SVG Export Plug-In . SVG Version: 6.00 Build 0)  -->
<svg version="1.1" id="icon" xmlns="http://www.w3.org/2000/svg" xmlns:xlink="http://www.w3.org/1999/xlink" x="0px" y="0px"
	 viewBox="0 0 27.84 28.89" style="enable-background:new 0 0 27.84 28.89;" xml:space="preserve">
<style type="text/css">
	.st0{stroke:#000000;stroke-width:0.5;stroke-miterlimit:10;}
</style>
<g>
	<path class="st0" d="M13.81,21.77c-5.26,0-10-6.53-10-8V8.89c0-0.28,0.22-0.5,0.5-0.5c0.28,0,0.5,0.22,0.5,0.5v4.88
		c0,0.99,4.31,7,9,7s9-6.01,9-7V8.89c0-0.28,0.22-0.5,0.5-0.5s0.5,0.22,0.5,0.5v4.88C23.81,15.24,19.07,21.77,13.81,21.77z"/>
	<path class="st0" d="M27.09,28.64c-0.28,0-0.5-0.22-0.5-0.5c0-4.63-2.28-8.25-5.18-8.25h-2.6c-0.28,0-0.5-0.22-0.5-0.5
		c0-0.28,0.22-0.5,0.5-0.5h2.6c3.52,0,6.18,3.98,6.18,9.25C27.59,28.42,27.37,28.64,27.09,28.64z"/>
	<path class="st0" d="M0.75,28.64c-0.28,0-0.5-0.22-0.5-0.5c0-5.27,2.56-9.25,5.96-9.25h2.59c0.28,0,0.5,0.22,0.5,0.5
		c0,0.28-0.22,0.5-0.5,0.5H6.21c-2.78,0-4.96,3.62-4.96,8.25C1.25,28.42,1.03,28.64,0.75,28.64z"/>
	<path class="st0" d="M6.54,11.77c-0.13,0-0.26-0.05-0.35-0.15C3.12,8.55,3.96,6.88,4.51,5.77c0.15-0.3,0.28-0.56,0.28-0.75
		c0-1.58,1.95-4.25,9.25-4.25c1.47,0,2.81,0.11,3.98,0.33c0.58-0.52,1.41-0.85,2.2-0.85c0.66,0,1.24,0.23,1.68,0.66
		c0.14,0.14,0.19,0.36,0.11,0.54c-0.08,0.19-0.26,0.31-0.46,0.31c-0.13,0-0.43,0-0.61,0.28c1.73,0.9,2.36,2.1,2.36,2.97
		c0,0.22,0.16,0.61,0.31,0.98c0.34,0.83,0.76,1.86,0.31,2.85c-0.33,0.72-1.05,1.26-2.21,1.64c-0.05,0.02-0.1,0.03-0.16,0.03
		c-2.12,0-4.21-1.56-5.08-3C14.18,10.84,7.48,11.77,6.54,11.77z M14.04,1.77c-6.77,0-8.25,2.35-8.25,3.25c0,0.43-0.19,0.8-0.38,1.2
		C4.92,7.2,4.36,8.31,6.75,10.76c1.74-0.1,8.24-1.41,9.32-4.65c0.08-0.23,0.31-0.37,0.55-0.33c0.24,0.04,0.42,0.25,0.42,0.49
		c0,0.88,2.14,3.2,4.42,3.25c0.82-0.29,1.34-0.65,1.54-1.08c0.27-0.59-0.03-1.34-0.33-2.05c-0.2-0.48-0.38-0.94-0.38-1.36
		c0-0.59-0.57-1.54-2.18-2.25c-0.21-0.09-0.33-0.32-0.29-0.54c0.07-0.4,0.23-0.73,0.47-0.97c-0.6-0.03-1.33,0.28-1.74,0.73
		c-0.12,0.13-0.3,0.19-0.47,0.15C16.92,1.89,15.56,1.77,14.04,1.77z"/>
	<path class="st0" d="M21.31,14.89h-5c-0.28,0-0.5-0.22-0.5-0.5v-4c0-0.28,0.22-0.5,0.5-0.5h5c0.28,0,0.5,0.22,0.5,0.5v4
		C21.81,14.67,21.58,14.89,21.31,14.89z M16.81,13.89h4v-3h-4V13.89z"/>
	<path class="st0" d="M12.31,14.89h-5c-0.28,0-0.5-0.22-0.5-0.5v-2.5c0-0.28,0.22-0.5,0.5-0.5c0.28,0,0.5,0.22,0.5,0.5v2h4v-3h-1
		c-0.28,0-0.5-0.22-0.5-0.5s0.22-0.5,0.5-0.5h1.5c0.28,0,0.5,0.22,0.5,0.5v4C12.81,14.67,12.58,14.89,12.31,14.89z"/>
	<path class="st0" d="M15.81,12.89h-3c-0.28,0-0.5-0.22-0.5-0.5s0.22-0.5,0.5-0.5h3c0.28,0,0.5,0.22,0.5,0.5
		S16.08,12.89,15.81,12.89z"/>
</g>
</svg>
