<svg version="1.1" id="Layer_1" xmlns="http://www.w3.org/2000/svg" x="0" y="0" viewBox="0 0 119.42 94.57" xml:space="preserve"><style>.st0{fill:#00ffb8}.st2{fill:#39a2b8}.st3{fill:none;stroke:#fff;stroke-width:2.6;stroke-linecap:round;stroke-linejoin:round;stroke-miterlimit:10}</style><path class="st0" d="M117.67 39.48a5.97 5.97 0 010 8.44l-4.71 4.71a5.97 5.97 0 01-8.44-8.44l4.71-4.71a5.951 5.951 0 018.44 0z"/><path d="M93.25 80.74c10.57-10.57 10.57-27.71 0-38.28L67.39 16.6c-10.57-10.57-27.71-10.57-38.28 0s-10.57 27.71 0 38.28l25.86 25.86c10.57 10.57 27.71 10.57 38.28 0z" fill="#ff00b3"/><path class="st0" d="M55.51 73.02a5.215 5.215 0 010 7.38L42.87 93.04a5.215 5.215 0 01-7.38 0 5.215 5.215 0 010-7.38l12.64-12.64a5.233 5.233 0 017.38 0z"/><path class="st2" d="M21.55 58.68a5.215 5.215 0 01-7.38 0L1.53 46.04a5.215 5.215 0 010-7.38 5.215 5.215 0 017.38 0L21.55 51.3c2.03 2.03 2.03 5.34 0 7.38zM91.49 75.9c-7.15 0-12.96-5.81-12.96-12.96s5.81-12.96 12.96-12.96c7.15 0 12.96 5.81 12.96 12.96S98.64 75.9 91.49 75.9zm0-20.37c-4.08 0-7.41 3.32-7.41 7.41s3.32 7.41 7.41 7.41c4.08 0 7.41-3.32 7.41-7.41s-3.32-7.41-7.41-7.41z"/><path class="st0" d="M56.18 2.63c3.5-3.5 9.18-3.5 12.68 0l10.16 10.16c3.5 3.5 3.5 9.18 0 12.68s-9.18 3.5-12.68 0L56.18 15.31c-3.5-3.5-3.5-9.18 0-12.68z"/><circle class="st3" cx="40.83" cy="49.98" r="5.84"/><circle class="st3" cx="69.6" cy="49.98" r="5.84"/><path class="st3" d="M34.99 49.98h-4.87v-12.7l7-11.8h14.75v24.5h-5.2"/><path class="st3" d="M74.75 47.23h5.33v-9.95H51.87m0 9.95h12.58m-7.41-9.95v-9.83c0-3.03 2.45-5.48 5.48-5.48h4.08c3.03 0 5.48 2.45 5.48 5.48v9.83m-4.41-20.05h3.09v-5.62c0-3.43-2.78-6.2-6.2-6.2-3.43 0-6.2 2.78-6.2 6.2v5.62h3.09m3.11 4.75v-2.82"/><path class="st3" d="M68.04 11.61v4.07c0 1.92-1.56 3.48-3.48 3.48s-3.48-1.56-3.48-3.48v-4.07m-.92-.01h8.79"/><path fill="none" stroke="#fff" stroke-width="1.6" stroke-linecap="round" stroke-linejoin="round" stroke-miterlimit="10" d="M64.56 14.81v.57"/><path class="st3" d="M64.56 37.28V34.5a2.2 2.2 0 014.4 0v2.78m3.11 0V34.5a2.2 2.2 0 014.4 0v2.78"/><path class="st2" d="M39.66 29.63h7.22c.82 0 1.49.67 1.49 1.49v4.67c0 .82-.67 1.49-1.49 1.49h-9.99c-1.15 0-1.86-1.25-1.28-2.24l2.77-4.67c.27-.46.76-.74 1.28-.74z"/></svg>