<svg version="1.1" id="Layer_1" xmlns="http://www.w3.org/2000/svg" x="0" y="0" viewBox="0 0 76.97 68.79" xml:space="preserve"><style>.st0{fill:#b6ada5}.st2{fill:#dbd9d2}.st3{fill:none;stroke:#fff;stroke-width:1.6;stroke-linecap:round;stroke-linejoin:round;stroke-miterlimit:10}</style><path class="st0" d="M75.03 29.53a6.621 6.621 0 010 9.37L58.98 54.95c-2.59 2.59-6.78 2.59-9.37 0s-2.59-6.78 0-9.37l16.05-16.05c2.58-2.59 6.78-2.59 9.37 0z"/><path d="M14.28 58.42c-7.93-7.93-7.93-20.78 0-28.71l19.39-19.39c7.93-7.93 20.78-7.93 28.71 0s7.93 20.78 0 28.71L42.99 58.42c-7.93 7.92-20.78 7.92-28.71 0z" fill="#c5bdb6"/><path class="st0" d="M34.08 52.63a3.905 3.905 0 010 5.53l-9.48 9.48a3.905 3.905 0 01-5.53 0 3.905 3.905 0 010-5.53l9.48-9.48c1.52-1.53 4-1.53 5.53 0z"/><path class="st2" d="M12.97 45.59C5.82 45.59 0 39.77 0 32.62s5.82-12.97 12.97-12.97 12.97 5.82 12.97 12.97-5.82 12.97-12.97 12.97zm0-18.97c-3.31 0-6 2.69-6 6s2.69 6 6 6 6-2.69 6-6-2.69-6-6-6z"/><path class="st0" d="M21.59 1.97c2.63-2.63 6.89-2.63 9.51 0l7.62 7.62c2.63 2.63 2.63 6.89 0 9.51-2.63 2.63-6.89 2.63-9.51 0l-7.62-7.62a6.718 6.718 0 010-9.51z"/><path class="st2" d="M59.31 49.51H41.2a4.511 4.511 0 010-9.02h18.11a4.511 4.511 0 010 9.02z"/><path class="st0" d="M54.91 31.53H45.6c-1.88 0-3.41-1.53-3.41-3.41 0-1.88 1.53-3.41 3.41-3.41h9.32c1.88 0 3.41 1.53 3.41 3.41a3.43 3.43 0 01-3.42 3.41z"/><path class="st3" d="M57.81 47.26H39.7a4.511 4.511 0 010-9.02h18.11a4.511 4.511 0 010 9.02z"/><path class="st3" d="M54.81 38.25H42.7c-2.45 0-4.43-1.98-4.43-4.43 0-2.45 1.98-4.43 4.43-4.43h12.1c2.45 0 4.43 1.98 4.43 4.43 0 2.45-1.98 4.43-4.42 4.43zm-1.4-8.97H44.1c-1.88 0-3.41-1.53-3.41-3.41 0-1.88 1.53-3.41 3.41-3.41h9.32c1.88 0 3.41 1.53 3.41 3.41a3.43 3.43 0 01-3.42 3.41zm-6.54-19.24l-3.6 9.23c-.58 1.48.52 3.09 2.11 3.09h6.75c1.59 0 2.69-1.6 2.11-3.09l-3.6-9.23c-.67-1.72-3.1-1.72-3.77 0z"/><circle class="st3" cx="31.72" cy="15.45" r="5.95"/><path class="st3" d="M25.76 15.45h8.02M30.1 9.72c-.01-.07-.01-.15-.01-.22a1.63 1.63 0 013.26 0c0 .08-.01.15-.01.22m-.75 11.62l.67 13.88c.04.88-.66 1.62-1.54 1.62s-1.58-.74-1.54-1.62l.67-13.88m6.82-5.89h-1.48"/></svg>