<svg version="1.1" id="Layer_1" xmlns="http://www.w3.org/2000/svg" x="0" y="0" viewBox="0 0 98.72 92.89" xml:space="preserve"><style>.st0{fill:#39a2b8}.st1{fill:#00ffb8}.st3{fill:none;stroke:#fff;stroke-width:2.6;stroke-linecap:round;stroke-linejoin:round;stroke-miterlimit:10}</style><path class="st0" d="M28.5 11.39c3.92 3.92 3.92 10.28 0 14.19L17.13 36.95c-3.92 3.92-10.28 3.92-14.19 0s-3.92-10.28 0-14.19l11.37-11.37a10.031 10.031 0 0114.19 0z"/><path class="st1" d="M56.4 2.59c3.45 3.45 3.45 9.05 0 12.5L40.14 31.34c-3.45 3.45-9.05 3.45-12.5 0s-3.45-9.05 0-12.5L43.9 2.59c3.45-3.45 9.05-3.45 12.5 0z"/><path d="M15.06 84.96c-10.57-10.57-10.57-27.71 0-38.28l25.86-25.86c10.57-10.57 27.71-10.57 38.28 0s10.57 27.71 0 38.28L53.34 84.96c-10.57 10.58-27.7 10.58-38.28 0z" fill="#ff00b3"/><path class="st1" d="M23.46 61.58a5.215 5.215 0 010 7.38L10.82 81.6a5.215 5.215 0 01-7.38 0 5.215 5.215 0 010-7.38l12.64-12.64c2.03-2.03 5.34-2.03 7.38 0zm63.67-13.41c-3.64 0-6.6-2.96-6.6-6.6 0-3.64 2.96-6.6 6.6-6.6s6.6 2.96 6.6 6.6c0 3.64-2.96 6.6-6.6 6.6zm0-18.18c-6.39 0-11.58 5.2-11.58 11.58s5.2 11.58 11.58 11.58 11.58-5.2 11.58-11.58-5.19-11.58-11.58-11.58z"/><path class="st0" d="M49.38 62.75c3.5-3.5 9.18-3.5 12.68 0l10.16 10.16c3.5 3.5 3.5 9.18 0 12.68s-9.18 3.5-12.68 0L49.38 75.43c-3.5-3.5-3.5-9.18 0-12.68z"/><path class="st3" d="M70.32 58.1h3.87c2.01 0 3.58-1.74 3.36-3.75l-1.84-17.12a5.872 5.872 0 00-5.84-5.24H62.9c-.79 0-1.37.72-1.22 1.49.16.77-.43 1.49-1.22 1.49H48.54c-.79 0-1.37-.72-1.22-1.49a1.24 1.24 0 00-1.22-1.49h-6.97c-3 0-5.52 2.26-5.84 5.24l-1.84 17.12c-.21 2 1.35 3.75 3.36 3.75h3.87c2.07 0 3.86-1.46 4.28-3.49l.58-2.81a4.529 4.529 0 014.44-3.62H61c2.15 0 4.01 1.51 4.44 3.62l.58 2.81c.44 2.03 2.23 3.49 4.3 3.49zm-1-18.65v6.75m3.37-3.37h-6.75"/><circle class="st3" cx="39.84" cy="42.83" r="2.94"/><path class="st3" d="M32.82 41.71h-14.9a1.83 1.83 0 01-1.83-1.83V14.73c0-1.01.82-1.83 1.83-1.83h39.84c1.01 0 1.83.82 1.83 1.83v20.24"/><path d="M29.73 37.71h-9.78V18.19c0-.72.58-1.3 1.3-1.3h34.48v13.09" fill="none" stroke="#fff" stroke-width="1.6" stroke-linecap="round" stroke-linejoin="round" stroke-miterlimit="10"/></svg>