<svg version="1.1" id="Layer_1" xmlns="http://www.w3.org/2000/svg" x="0" y="0" viewBox="0 0 98.22 65.41" xml:space="preserve"><style>.st0{fill:#39a2b8}.st1,.st2{fill:none;stroke-width:1.6;stroke-linecap:round;stroke-miterlimit:10}.st1,.st2,.st4,.st5{stroke-linejoin:round;stroke:#006272}.st2,.st4,.st5{stroke:#fff}.st4,.st5{fill:none;stroke-linecap:round;stroke-miterlimit:10}.st5{stroke:#39a2b8}</style><path class="st0" d="M62.24 16.88c-7.08-7.08-18.57-7.08-25.65 0l-7.73 7.73c-7.08 7.08-7.08 18.57 0 25.65 2.26 2.26 4.98 3.79 7.85 4.61l8.09 10.54V55.29a18.06 18.06 0 009.71-5.03l7.73-7.73c7.09-7.09 7.09-18.57 0-25.65z"/><path class="st1" d="M44.8 32.83H51v-7.55c0-3.43-2.78-6.2-6.2-6.2-3.43 0-6.2 2.78-6.2 6.2v7.55h6.2"/><path class="st2" d="M36.44 49.59v-7.03c0-3.77 3.05-6.82 6.82-6.82h3.08c3.77 0 6.82 3.05 6.82 6.82m-8.36-6.82v-2.91m3.48-7.55v4.07c0 1.92-1.56 3.48-3.48 3.48s-3.48-1.56-3.48-3.48v-4.07"/><path class="st1" d="M40.41 25.27h8.78"/><path d="M27.62 4.47c-5.06-5.06-13.25-5.06-18.31 0L3.79 9.99c-5.06 5.06-5.06 13.25 0 18.31 1.62 1.62 3.55 2.71 5.6 3.29l5.77 7.52v-7.22a12.86 12.86 0 006.93-3.59l5.52-5.52c5.07-5.06 5.07-13.25.01-18.31z" fill="#006272"/><path class="st4" d="M21.57 21.17c0-2.15-1.74-3.88-3.88-3.88h-6.76c-2.15 0-3.88 1.74-3.88 3.88v6.25m7.25-10.13v-2.08m-2.48-5.39v2.9a2.49 2.49 0 004.98 0v-2.9"/><path class="st5" d="M11.82 9.82a2.49 2.49 0 014.98 0s-2.91.13-3.21-.54c-.42.36-1.77.54-1.77.54z"/><path class="st4" d="M11.82 10.38h-.67a.77.77 0 00-.77.77v.6c0 .42.34.77.77.77h.67m4.97-2.14h.67c.42 0 .77.34.77.77v.6c0 .42-.34.77-.77.77h-.67"/><path class="st5" d="M16.79 10.94V9.82m-4.97 0v1.12"/><path class="st4" d="M14.3 11.89v.91"/><path class="st2" d="M44.8 28.48v.57"/><path class="st0" d="M70.6 6.04c5.06-5.06 13.25-5.06 18.31 0l5.52 5.52c5.06 5.06 5.06 13.25 0 18.31a12.822 12.822 0 01-5.6 3.29l-5.77 7.52v-7.22a12.86 12.86 0 01-6.93-3.59l-5.52-5.52c-5.07-5.06-5.07-13.25-.01-18.31z"/><path class="st4" d="M80.57 15.08h-1.95v-3.04c0-2.45 1.98-4.43 4.43-4.43 2.45 0 4.43 1.98 4.43 4.43v3.04h-1.95m3.49 13.69v-4.39a4.87 4.87 0 00-4.87-4.87h-2.2a4.87 4.87 0 00-4.87 4.87m5.98-4.87v-2.08"/><path class="st4" d="M80.57 12.04v2.9a2.49 2.49 0 004.98 0v-2.9m.64-.01h-6.27"/><path d="M84.52 14.09c.57 0 1.03-.46 1.03-1.03 0-.57-.46-1.03-1.03-1.03-.57 0-1.03.46-1.03 1.03 0 .57.46 1.03 1.03 1.03zm-2.93 0c.57 0 1.03-.46 1.03-1.03 0-.57-.46-1.03-1.03-1.03-.57 0-1.03.46-1.03 1.03.01.57.47 1.03 1.03 1.03z" stroke="#006272" stroke-linejoin="round" fill="none" stroke-linecap="round" stroke-miterlimit="10"/><path class="st4" d="M83.06 15.18v-.45"/><path d="M64.57 52.07l-6.05 6.05m-31.05 0l-3.02 3.03" stroke-linejoin="round" stroke="#006272" stroke-width="4.5" fill="none" stroke-linecap="round" stroke-miterlimit="10"/><path d="M2.99 36.15l6.05 6.05m27.4-30.46l9.49-9.49" stroke="#39a2b8" stroke-width="4.5" fill="none" stroke-linecap="round" stroke-miterlimit="10"/></svg>