<svg version="1.1" id="Layer_1" xmlns="http://www.w3.org/2000/svg" x="0" y="0" viewBox="0 0 109.87 60.42" xml:space="preserve"><style>.st0{fill:#006272}.st1,.st2{fill:none;stroke:#fff;stroke-linecap:round;stroke-linejoin:round;stroke-miterlimit:10}.st2{stroke-width:1.6}.st3{fill:#39a2b8}.st5,.st6{fill:none;stroke-miterlimit:10}.st5{stroke:#39a2b8;stroke-width:1.6}.st6{stroke-width:4.5;stroke-linecap:round;stroke-linejoin:round;stroke:#006272}</style><path class="st0" d="M27.82 54.99c-7.08-7.08-7.08-18.55 0-25.63l11.61-11.61c7.08-7.08 18.55-7.08 25.63 0s7.08 18.55 0 25.63L53.44 54.99c-7.07 7.07-18.54 7.07-25.62 0z"/><path class="st0" d="M47.56 54.34c-5.64 5.64-14.79 5.64-20.44 0L6.48 33.7c-5.64-5.64-5.64-14.79 0-20.44s14.79-5.64 20.44 0L47.56 33.9c5.65 5.64 5.65 14.79 0 20.44z"/><path class="st1" d="M36.65 42.96L18.73 25.04m4.86 4.86h-9.72M27.69 34V23.29m8.96 25.43l8.9-8.91"/><path class="st2" d="M36.65 59.62V28.65"/><path class="st3" d="M76.85 45.11c5.1-5.1 5.1-13.37 0-18.47l-5.58-5.58c-5.1-5.1-13.37-5.1-18.47 0s-5.1 13.37 0 18.47l5.58 5.58c5.1 5.1 13.37 5.1 18.47 0z"/><path class="st3" d="M61.35 35.21c4.98 0 9.01-4.03 9.01-9.01v-8.16c0-4.98-4.03-9.01-9.01-9.01s-9.01 4.03-9.01 9.01v8.16c0 4.97 4.04 9.01 9.01 9.01z"/><path class="st3" d="M53.57 14.37l-6.49 2.34c-.88.32-.84 1.58.05 1.84l7.75 2.28-1.31-6.46z"/><path class="st2" d="M72.66 40.92a8.504 8.504 0 000-12.04l-3.64-3.64a8.504 8.504 0 00-12.04 0 8.504 8.504 0 000 12.04l3.64 3.64c3.33 3.33 8.72 3.33 12.04 0z"/><path class="st1" d="M70.36 42.55l-6.94-6.94m3.47 7.79l-3.59-3.58m9.36 1.1l-4.69-4.69"/><circle cx="55.52" cy="17.23" r="1.47" fill="#fff"/><path class="st3" d="M65.5 55.99V46.6l5.78 1.87z"/><g><path class="st5" d="M100.83 19.01h3.09a5.16 5.16 0 110 10.32H83.25a5.16 5.16 0 01-5.16-5.16m-2.5-17.25a6.12 6.12 0 01-6.12 6.12h-8.49a6.12 6.12 0 110-12.24h8.49a6.12 6.12 0 016.12 6.12z"/><path class="st5" d="M92.25 24.17h-6.91c-3.24 0-5.87-2.63-5.87-5.87s2.63-5.87 5.87-5.87h16.4"/><path class="st5" d="M75.19 4.76h17.06c5.36 0 9.7 4.34 9.7 9.7s-4.34 9.7-9.7 9.7h-19.6c-5.36 0-9.7-4.34-9.7-9.7 0-.48.04-.96.1-1.42"/></g><path class="st6" d="M87.15 46.6l8.33-8.34"/><path d="M26.31 48.93l-8.49 8.49M38.89 4.76l-6.18 6.18" stroke="#39a2b8" stroke-width="4.5" stroke-linecap="round" fill="none" stroke-miterlimit="10"/><path class="st6" d="M2.25 36.37l5.24 5.24"/></svg>