<svg version="1.1" id="Layer_1" xmlns="http://www.w3.org/2000/svg" x="0" y="0" viewBox="0 0 9.84 17.11" xml:space="preserve"><style>.st0{fill:none;stroke:#006272;stroke-linecap:round;stroke-linejoin:round;stroke-miterlimit:10}</style><path class="st0" d="M.5 4.92C.5 2.51 2.43.55 4.83.5 7.31.45 9.34 2.53 9.34 5.01v3.8c0 1.74-1.19 3.21-2.8 3.63-.56.15-.95.66-.95 1.24v.72c0 1.17-.91 2.16-2.08 2.21-1.23.04-2.23-.94-2.23-2.15v-.52c0-.43-.35-.78-.78-.78"/><path class="st0" d="M2.77 8.02v-3.1c0-1.16.95-2.13 2.11-2.15 1.21 0 2.2 1.03 2.2 2.24v3.8c0 .67-.45 1.26-1.1 1.43-.67.17-1.25.54-1.7 1.02"/></svg>