<svg data-name="Layer 1" xmlns="http://www.w3.org/2000/svg" viewBox="0 0 99.93 94.15"><path d="M62.05 29.09a10.79 10.79 0 00-12-2.24 10.79 10.79 0 00-12 2.24L11.88 55.34l-7-7a2.634 2.634 0 10-3.73 3.72l7.08 7.09a10.8 10.8 0 0016.2 14.13l25.62-25.62 9.47 9.48a8.77 8.77 0 1013.71 7.24v-.19a10.65 10.65 0 005.65-3 10.79 10.79 0 000-15.27zm2.43 40.56a5.25 5.25 0 01-2.37-10l1.51 1.51a10.77 10.77 0 006.11 3.05v.12a5.28 5.28 0 01-5.25 5.32zM48.11 15.79L59.02 4.87a2.63 2.63 0 00-3.72-3.72L44.43 12.06a2.64 2.64 0 003.73 3.73zm51.05 35.32L88.24 40.19a2.634 2.634 0 00-3.72 3.73l10.91 10.92a2.64 2.64 0 003.73-3.73z" fill="#006272"/><path d="M33.64 74.08L18.07 89.65a2.634 2.634 0 003.72 3.73l15.58-15.57a2.64 2.64 0 00-3.73-3.73zm20.57 2.89l-5.07 5.07a2.64 2.64 0 003.73 3.73l5.07-5.07a2.64 2.64 0 10-3.73-3.73z" fill="#006272"/><path d="M78.52 60.84a10.8 10.8 0 01-15.28 0L46.43 43.99A10.8 10.8 0 0161.7 28.72l16.85 16.84a10.8 10.8 0 01-.03 15.28z" fill="#ff00b3"/><path d="M8.8 72.9a10.79 10.79 0 010-15.27l28.91-28.91a10.801 10.801 0 0115.28 15.27L24.07 72.9a10.79 10.79 0 01-15.27 0z" fill="#00ffb8"/><path d="M58.65.77a2.64 2.64 0 010 3.73L47.73 15.41A2.634 2.634 0 1144 11.69L54.92.77a2.64 2.64 0 013.73 0z" fill="#39a2b8"/><path d="M84.14 39.82a2.64 2.64 0 013.73 0l10.91 10.91a2.64 2.64 0 11-3.73 3.73L84.14 43.55a2.64 2.64 0 010-3.73z" fill="#00ffb8"/><path d="M36.99 73.7a2.64 2.64 0 010 3.73L21.43 93a2.634 2.634 0 11-3.73-3.72L33.28 73.7a2.63 2.63 0 013.71 0z" fill="#39a2b8"/><path d="M15.43 62.55a2.64 2.64 0 01-3.73 0L.79 51.64a2.634 2.634 0 013.72-3.73l10.92 10.92a2.63 2.63 0 010 3.72z" fill="#ff00b3"/><path d="M64.1 72.77A8.77 8.77 0 1172.87 64a8.78 8.78 0 01-8.77 8.77zm0-14a5.27 5.27 0 105.27 5.27 5.28 5.28 0 00-5.27-5.31z" fill="#00ffb8"/><path d="M57.56 76.59a2.64 2.64 0 010 3.73l-5.07 5.07a2.64 2.64 0 01-3.73-3.73l5.08-5.07a2.63 2.63 0 013.72 0z" fill="#ff00b3"/></svg>