<svg version="1.1" id="Layer_1" xmlns="http://www.w3.org/2000/svg" x="0" y="0" viewBox="0 0 242.52 392.06" xml:space="preserve"><style>.st0{fill:#00ffb8}.st2{fill:#ff00b3}</style><path class="st0" d="M88.53 369.54c-27.36 0-49.63-22.26-49.63-49.63s22.26-49.63 49.63-49.63 49.63 22.26 49.63 49.63-22.27 49.63-49.63 49.63zm0-79.45c-16.44 0-29.82 13.38-29.82 29.82s13.38 29.82 29.82 29.82 29.82-13.38 29.82-29.82-13.38-29.82-29.82-29.82z"/><path d="M239.62 276.79c3.88 3.88 3.88 10.17 0 14.04l-35.32 35.32c-3.88 3.88-10.17 3.88-14.04 0-3.88-3.88-3.88-10.17 0-14.04l35.32-35.32c3.87-3.88 10.16-3.88 14.04 0z" fill="#39a2b8"/><path class="st2" d="M37.11 59.54c3.88 3.88 3.88 10.17 0 14.04L16.95 93.74c-3.88 3.88-10.17 3.88-14.04 0-3.88-3.88-3.88-10.17 0-14.04l20.16-20.16a9.922 9.922 0 0114.04 0z"/><path class="st0" d="M84.19 2.91c3.88-3.88 10.17-3.88 14.04 0l35.32 35.32c3.88 3.88 3.88 10.17 0 14.04-3.88 3.88-10.17 3.88-14.04 0L84.19 16.95a9.922 9.922 0 010-14.04z"/><path class="st2" d="M156.19 358.91c3.88-3.88 10.17-3.88 14.04 0l16.21 16.21c3.88 3.88 3.88 10.17 0 14.04-3.88 3.88-10.17 3.88-14.04 0l-16.21-16.21a9.922 9.922 0 010-14.04z"/></svg>