<svg xmlns="http://www.w3.org/2000/svg" viewBox="0 0 28.92 34.51"><path d="M10.65 34.01l8.84-8.83m-5.2-15.11l-4.95 4.95m3.99 1.08l2.31-2.3m2.52 2.55l-2.64 2.64m1.43 3.65l4.35-4.35m-1.81 6.89l7.12-7.12c.53-.53.66-1.3.39-1.94m-15.17 4.55a3.43 3.43 0 00-1.53-3.49c-.72-.47-1.14-1.28-.99-2.12l.91-5.24c.17-.98-.48-1.91-1.46-2.08-.98-.17-1.91.49-2.08 1.46L4.9 19.46l-4.4 4.4m11.48-8.94c.47.36.92.75 1.35 1.18 2.45 2.45 3.73 5.63 3.85 8.84" fill="none" stroke="#006272" stroke-linecap="round" stroke-linejoin="round" stroke-miterlimit="10"/><path d="M26.4 8.36s-1.14-1.13-1.9-1.9c-.52-.53-.82-1.03-.82-1.59 0-2.06-1.64-4.02-3.78-4.11-1.55-.07-2.92.76-3.63 2.01-.16.28-.42.5-.73.61l-2.1.76c-.39.14-.37.69.02.81l2.29.67v0c0 .38-.11.76-.34 1.06a5.73 5.73 0 00.54 7.48l2.45 2.45a5.732 5.732 0 008.19-.08c2.21-2.28 2.04-5.94-.19-8.17z" fill="none" stroke="#39a2b8" stroke-width="1.5" stroke-linecap="round" stroke-linejoin="round" stroke-miterlimit="10"/></svg>