<svg xmlns="http://www.w3.org/2000/svg" viewBox="0 0 20.29 28.34"><path d="M8 11.91c.82-3.56.53-7.16-.84-10.79m5.01 17.47c2.49.63 4.95.4 7.37-.78m-7.76-3.3c2.57-1.6 4.36-3.74 5.23-6.54m-6.37 14.36c1.08 1.45 2.5 2.52 4.25 3.21m-8.28-2.69c-.33 1.54-.14 3.08.55 4.62m-3.29-7.01c-1.15.59-1.85 1.61-2.26 2.91m3.24-7.01c-.43-.43-.97-.79-1.61-1.06m3.92.79c0-.49-.1-1.02-.29-1.59m1.04 3.41c.74-.09 1.26-.6 1.55-1.55m-5.88 2.25c-.99-.06-1.9.07-2.75.33" fill="none" stroke="#006272" stroke-linecap="round" stroke-linejoin="round" stroke-miterlimit="10"/><path d="M3.75.75c8.72 0 15.79 7.07 15.79 15.79 0 6.1-4.95 11.05-11.05 11.05a7.74 7.74 0 01-7.74-7.74c0-2.99 2.42-5.42 5.42-5.42 2.09 0 3.79 1.7 3.79 3.79 0 1.47-1.19 2.65-2.65 2.65-1.03 0-1.86-.83-1.86-1.86 0-1.09.72-1.59 1.43-1.59s1.32.59 1.32 1.09" fill="none" stroke="#39a2b8" stroke-width="1.5" stroke-linecap="round" stroke-linejoin="round" stroke-miterlimit="10"/></svg>