<svg version="1.1" id="Layer_1" xmlns="http://www.w3.org/2000/svg" x="0" y="0" viewBox="0 0 25.17 25.11" xml:space="preserve"><style>.st0,.st2{fill:none;stroke-linecap:round;stroke-linejoin:round;stroke-miterlimit:10}.st0{stroke-width:1.5;stroke:#39a2b8}.st2{stroke:#006272}</style><path class="st0" d="M17.76 16.53l-6.99 2.22V6.37l6.99 2.22m0 0h6.66v7.94h-6.66"/><path fill="none" stroke="#39a2b8" stroke-linecap="round" stroke-linejoin="round" stroke-miterlimit="10" d="M17.76 16.53v-5.01"/><path class="st0" d="M21.09 16.53l-1.89 6.43"/><path class="st2" d="M7.62 17.99a9.763 9.763 0 01-1.67-5.47c0-2.01.61-3.88 1.65-5.44M5.91 21.3a15.669 15.669 0 01-2.68-8.78c0-3.23.97-6.23 2.64-8.73"/><path class="st2" d="M4.19 24.61A21.526 21.526 0 01.5 12.52C.5 8.07 1.84 3.94 4.14.5"/><path fill="none" stroke="#ac162c" stroke-width="1.5" stroke-linecap="round" stroke-miterlimit="10" d="M19.2 4.11L2.35 20.97"/></svg>