<svg version="1.1" id="Layer_1" xmlns="http://www.w3.org/2000/svg" x="0" y="0" viewBox="0 0 24.66 28.82" xml:space="preserve"><style>.st1{fill:none;stroke-linecap:round;stroke-linejoin:round;stroke-miterlimit:10;stroke:#006272}</style><path d="M5.92 7.27c0-3.99 3.58-7.14 7.7-6.41 2.62.46 4.77 2.61 5.23 5.23.46 2.65-.67 5.07-2.6 6.47-2.28 1.65-3.81 4.12-3.81 6.93v3m0 2.75v1.81" stroke-width="1.5" stroke="#39a2b8" fill="none" stroke-linecap="round" stroke-linejoin="round" stroke-miterlimit="10"/><path class="st1" d="M18.96 17.84c0-1.59 1.43-2.85 3.08-2.56 1.05.18 1.91 1.04 2.09 2.09.19 1.06-.27 2.03-1.04 2.58-.91.66-1.52 1.65-1.52 2.77v1.1m-.01 1.42v.59M.5 16.83c0-2.38 2.14-4.26 4.6-3.83 1.57.27 2.85 1.56 3.12 3.12.28 1.58-.4 3.03-1.55 3.86-1.36.98-2.28 2.46-2.28 4.14v1.71m0 1.73v.76"/></svg>