<svg version="1.1" id="Layer_1" xmlns="http://www.w3.org/2000/svg" x="0" y="0" viewBox="0 0 83.86 60.82" xml:space="preserve"><style>.st2{fill:#ff00b3}</style><path d="M83.08 20.31a2.638 2.638 0 00-3.73 0l-5.07 5.07a2.638 2.638 0 003.73 3.73l5.07-5.07a2.638 2.638 0 000-3.73zM6.27 37.12L1.2 42.2a2.638 2.638 0 003.73 3.73L10 40.85a2.638 2.638 0 000-3.73 2.656 2.656 0 00-3.73 0zM48.31 7.73h-.1L41.68 1.2a2.638 2.638 0 00-3.73 3.73l3.81 3.81c-6.44 2.03-11.6 6.98-13.93 13.29-.53-.1-1.07-.16-1.62-.16-4.83 0-8.77 3.93-8.77 8.77s3.93 8.77 8.77 8.77c.86 0 1.69-.13 2.47-.36 1.97 4.06 5.17 7.42 9.11 9.59l-7.68 7.68a2.638 2.638 0 003.73 3.73l9.31-9.31c1.65.4 3.38.62 5.16.62 12.03 0 21.81-9.78 21.81-21.81S60.34 7.73 48.31 7.73zm-22.1 28.18a5.27 5.27 0 010-10.54c.23 0 .46.04.68.07a21.711 21.711 0 00.52 10.32c-.39.09-.78.15-1.2.15zm22.1.44c-3.75 0-6.81-3.05-6.81-6.81 0-3.75 3.05-6.81 6.81-6.81s6.81 3.05 6.81 6.81-3.05 6.81-6.81 6.81z" fill="#006272"/><path d="M82.65 19.88a2.638 2.638 0 010 3.73l-5.07 5.07a2.638 2.638 0 01-3.73-3.73l5.07-5.07c1.04-1.03 2.71-1.03 3.73 0zM9.57 36.69a2.638 2.638 0 010 3.73L4.5 45.49a2.638 2.638 0 01-3.73-3.73l5.07-5.07a2.656 2.656 0 013.73 0zm38.31 14.23c-12.03 0-21.81-9.78-21.81-21.81S35.86 7.3 47.88 7.3s21.81 9.78 21.81 21.81-9.78 21.81-21.81 21.81zm0-28.62c-3.75 0-6.81 3.05-6.81 6.81 0 3.75 3.05 6.81 6.81 6.81s6.81-3.05 6.81-6.81c0-3.75-3.05-6.81-6.81-6.81z" fill="#00ffb8"/><path class="st2" d="M52.17 15.41a2.638 2.638 0 01-3.73 0L37.52 4.5A2.638 2.638 0 0141.25.77l10.92 10.92a2.625 2.625 0 010 3.72z"/><path d="M44.33 44.97a2.638 2.638 0 010 3.73L33.41 59.61a2.638 2.638 0 01-3.73-3.73L40.6 44.97a2.638 2.638 0 013.73 0z" fill="#39a2b8"/><path class="st2" d="M25.78 38.98c-4.83 0-8.77-3.93-8.77-8.77s3.93-8.77 8.77-8.77 8.77 3.93 8.77 8.77-3.93 8.77-8.77 8.77zm0-14.04a5.27 5.27 0 10.001 10.541 5.27 5.27 0 00-.001-10.541z"/></svg>