<svg version="1.1" id="Layer_1" xmlns="http://www.w3.org/2000/svg" x="0" y="0" viewBox="0 0 19.66 29.2" xml:space="preserve"><style>.st0{fill:none;stroke:#39a2b8;stroke-linecap:round;stroke-linejoin:round;stroke-miterlimit:10}</style><path class="st0" d="M.5 28.7v-1.84a3.73 3.73 0 013.73-3.73h11.2a3.73 3.73 0 013.73 3.73v1.84"/><path class="st0" d="M5.12 23.13l4.71 5.14 4.71-5.14m-8.47-9.8s1.64-.65 3.76-.65 3.76.65 3.76.65m-.01 3.86V18c0 2.07-1.68 3.76-3.76 3.76-2.07 0-3.76-1.68-3.76-3.76v-.81"/><path class="st0" d="M6.07 14.54v-4.37c0-.75.6-1.35 1.35-1.35h4.81c.75 0 1.35.6 1.35 1.35v4.37"/><path d="M4.87 15.87c0-.74.6-1.34 1.34-1.34h1.52a1.34 1.34 0 010 2.68H6.2c-.73-.01-1.33-.61-1.33-1.34zm5.73 0c0-.74.6-1.34 1.34-1.34h1.52a1.34 1.34 0 010 2.68h-1.52c-.75-.01-1.34-.61-1.34-1.34z" stroke="#006272" fill="none" stroke-linecap="round" stroke-linejoin="round" stroke-miterlimit="10"/><path d="M6.95 3.63c0-1.76 1.58-3.15 3.4-2.83 1.16.2 2.11 1.15 2.31 2.31.21 1.17-.3 2.24-1.15 2.86-1.01.73-1.68 1.82-1.68 3.06v.27m0 2.26v1.12" stroke-width="1.5" stroke="#006272" fill="none" stroke-linecap="round" stroke-linejoin="round" stroke-miterlimit="10"/></svg>