<svg version="1.1" id="Layer_1" xmlns="http://www.w3.org/2000/svg" x="0" y="0" viewBox="0 0 839.06 283.46" xml:space="preserve"><style>.st1{fill:#fff}</style><path id="XMLID_16_" d="M817.8 286.3H20.55c-9.78 0-17.72-7.93-17.72-17.72V20.55c0-9.78 7.93-17.72 17.72-17.72H817.8c9.78 0 17.72 7.93 17.72 17.72v248.03c-.01 9.79-7.94 17.72-17.72 17.72z" fill="#ac162c"/><path class="st1" d="M158.97 110.11c-2.01 4.69-3.21 12.49-3.21 20.84 0 13.73 2.45 21.98 7.94 26.75 5.63 4.9 14.73 5.57 23.73 5.57 8.64 0 13.87-.73 23.36-2.06l.74-.1.09-9.57-.46.08c-.11.02-12.03 2.09-24.25 2.09-8.25 0-13.72-1.46-16.26-4.31-3.24-3.57-3.75-8.85-3.77-14.05 2.62.07 17.75.52 26.11.52 7.64 0 21.02-.98 21.15-.99l.34-.03.02-.34c0-.06.33-5.83.33-7.95 0-10.6-1.44-16.97-4.82-21.3-4.76-5.84-14.87-6.63-24.13-6.63-11.42.02-22.59 1.41-26.91 11.48zm27.68-2.15c6.68 0 11.27.47 13.51 2.86 2.21 2.35 3.32 7.45 3.42 15.59-9.46.4-27.48.37-36.51-.57.69-14.45 1.68-17.88 19.58-17.88zm49.79-27.66c-4.08 3.96-5.99 10.17-5.99 19.52 0 10.36 2.64 16.45 8.56 19.75 5.41 3.03 13.27 3.42 22.37 3.85l3.25.17c8.71.44 14.2.8 17.21 2.72 2.71 1.73 3.67 4.81 3.67 11.76 0 6.06-1.23 9.42-4.24 11.59-3.01 2.17-8.16 3.14-16.7 3.14-13.14 0-32.26-2.4-32.26-2.4l-.06 10.71s16.37 2.16 32.46 2.16c13.34 0 21.11-1.81 25.99-6.04 4.86-4.21 6.84-10.41 6.84-21.36 0-10.31-2.72-16.71-8.59-20.15-5.28-3.1-12.54-3.51-20.96-3.98l-8.21-.52-1.62-.1c-11.51-.72-15.81-.98-15.81-11.19 0-5.81.56-9.67 3.4-12.2 2.97-2.65 8.58-3.83 18.19-3.83 13.24 0 29.3 2.02 29.3 2.02l.01-10.18-.34-.04c-.18-.02-17.82-2.13-29.36-2.13-14.72.01-22.07 1.83-27.11 6.73zm0 0zm81.26 24.74c-4.42 5.11-5.31 13.71-5.31 25.92 0 12.22.89 20.82 5.31 25.93 4.58 5.3 12.67 6.39 23.39 6.39s18.8-1.09 23.38-6.39c4.42-5.11 5.3-13.71 5.3-25.93 0-12.21-.89-20.8-5.3-25.92-4.58-5.3-12.66-6.39-23.38-6.39-10.72 0-18.81 1.09-23.39 6.39zm8.76 45.47c-2.27-2.99-2.68-8.93-2.68-19.55 0-10.6.41-16.54 2.68-19.54 2.21-2.93 6.66-3.46 14.64-3.46 7.97 0 12.42.53 14.64 3.46 2.26 3 2.67 8.93 2.67 19.54s-.41 16.56-2.67 19.55c-2.22 2.93-6.67 3.46-14.64 3.46-7.98 0-12.43-.54-14.64-3.46zm103.01-51.09l-.03 52.28c-2.3.59-9.03 2.13-16.03 2.13-13.25 0-15.25-2.05-15.25-15.64V99.42h-10.98v40.33c0 9.73 1.43 15.12 4.97 18.6 3.54 3.5 9.03 4.92 18.93 4.92 3.03 0 7.34-.58 9.17-.82l.73-.09c1.05-.13 2.23-.57 4.17-1.39 1.99-.85 3.16-1.62 3.2-1.64.55-.38 1.02-.69 1.47-.69.4 0 .52 0 .67.87l.02-.01c0 .08.43 2.88.43 2.88h9.52l-.04-62.95h-10.95zm52.01-.11l-1.25.12c-1.39.12-4.85 1.8-5.55 2.2-.94.54-3 1.54-3.48 1.54-.4 0-.53 0-.67-.88 0 .01-.44-2.87-.44-2.87h-9.35v62.95h10.98v-52.36c2.52-.53 9.88-1.93 16.93-1.93 7.3 0 10.73.73 12.66 2.7 1.9 1.95 2.59 5.42 2.59 12.81v38.91h10.99v-40.46c0-9.61-1.48-15.15-4.96-18.54-3.46-3.4-9.13-4.85-18.95-4.85-2.86 0-7.16.43-9.5.66zm94.8-25.86s.05 26.06.06 26.96c-2.41-.43-10.44-1.76-19.26-1.76-10.19 0-17.05 3.13-20.97 9.53-3.85 6.28-4.36 15.05-4.36 22.77 0 7.86.51 16.73 4.27 23.01 3.75 6.26 10.31 9.31 20.02 9.31 4.8 0 8.05-.48 9.99-.76l1.22-.17c1.45-.14 4.76-1.89 4.97-1.99.49-.2 1.09-.49 1.69-.79.76-.38 1.9-.93 2.17-.94.58 0 .67.08.8.87l.44 2.87h9.96l.04-88.93h-11.04zm-30.02 76.03c-2.27-3.11-3.15-8.3-3.15-18.53s.89-15.44 3.19-18.58c2.26-3.08 6.05-4.29 13.48-4.29 5.53 0 12.27.72 16.54 1.35v42.01c-2.42.62-9.51 2.28-16.54 2.28-7.4 0-11.31-1.23-13.52-4.24zM129.5 85.65s.01 0 .01.01l-.02-.03c.01.01.01.01.01.02zm-55.54-12.2v88.93h11.62l.02-39.55 18.49-.01c.23.33 26.58 39.55 26.58 39.55h14.25l-26.48-39.26s-.13-.28.24-.28c1.31 0 5.52-.25 11.02-2.19 3.12-1.11 5.33-2.86 7.22-4.87 3.74-4.15 5.55-9.83 5.55-17.38 0-9.28-1.98-15.41-6.22-19.28-4.24-3.86-10.93-5.66-21.05-5.66H73.96zm38.39 10.34c8.29 0 13.04 1.1 15.39 3.56l.02.03c2.6 2.6 2.82 6.46 2.82 10.89 0 4.34-.22 8.15-2.82 10.75-2.37 2.49-7.12 3.6-15.41 3.6H85.6V83.8c.75-.01 26.75-.01 26.75-.01z"/><path id="XMLID_15_" class="st1" d="M81.11 215.38h-5.95c-.8 0-1.45-.65-1.45-1.45v-14.8c0-.8.65-1.45 1.45-1.45h5.95c.8 0 1.45.65 1.45 1.45v14.8c0 .8-.65 1.45-1.45 1.45z"/><path id="XMLID_14_" class="st1" d="M110.93 215.38h-6.92c-.84 0-1.52-.68-1.52-1.52V199.2c0-.84.68-1.52 1.52-1.52h6.92c.84 0 1.52.68 1.52 1.52v14.66c.01.84-.68 1.52-1.52 1.52z"/><path id="XMLID_13_" class="st1" d="M140.76 215.38h-7.89c-.88 0-1.59-.71-1.59-1.59v-14.53c0-.88.71-1.59 1.59-1.59h7.89c.88 0 1.59.71 1.59 1.59v14.53c0 .88-.71 1.59-1.59 1.59z"/><path id="XMLID_12_" class="st1" d="M170.59 215.38h-8.86c-.92 0-1.66-.74-1.66-1.66v-14.39c0-.92.74-1.66 1.66-1.66h8.86c.92 0 1.66.74 1.66 1.66v14.39c0 .92-.74 1.66-1.66 1.66z"/><path id="XMLID_11_" class="st1" d="M200.42 215.38h-9.83c-.96 0-1.73-.77-1.73-1.73V199.4c0-.96.77-1.73 1.73-1.73h9.83c.96 0 1.73.77 1.73 1.73v14.25c0 .96-.78 1.73-1.73 1.73z"/><path id="XMLID_10_" class="st1" d="M230.24 215.38h-10.8c-.99 0-1.8-.81-1.8-1.8v-14.11c0-.99.81-1.8 1.8-1.8h10.8c.99 0 1.8.81 1.8 1.8v14.11c0 .99-.8 1.8-1.8 1.8z"/><path id="XMLID_9_" class="st1" d="M260.07 215.38h-11.76c-1.03 0-1.87-.84-1.87-1.87v-13.97c0-1.03.84-1.87 1.87-1.87h11.76c1.03 0 1.87.84 1.87 1.87v13.97c0 1.03-.84 1.87-1.87 1.87z"/><path id="XMLID_8_" class="st1" d="M289.9 215.38h-12.73c-1.07 0-1.94-.87-1.94-1.94v-13.83c0-1.07.87-1.94 1.94-1.94h12.73c1.07 0 1.94.87 1.94 1.94v13.83c0 1.07-.87 1.94-1.94 1.94z"/><path id="XMLID_7_" class="st1" d="M319.73 215.38h-13.7c-1.11 0-2.01-.9-2.01-2.01v-13.7c0-1.11.9-2.01 2.01-2.01h13.7c1.11 0 2.01.9 2.01 2.01v13.7a2.023 2.023 0 01-2.01 2.01z"/><path id="XMLID_6_" class="st1" d="M349.55 215.38h-14.67c-1.15 0-2.08-.93-2.08-2.08v-13.56c0-1.15.93-2.08 2.08-2.08h14.67c1.15 0 2.08.93 2.08 2.08v13.56c0 1.15-.93 2.08-2.08 2.08z"/><path id="XMLID_5_" class="st1" d="M379.38 215.38h-15.57c-1.18 0-2.15-.96-2.15-2.15v-13.42c0-1.18.96-2.15 2.15-2.15h15.57c1.18 0 2.15.96 2.15 2.15v13.42c0 1.19-.96 2.15-2.15 2.15z"/><path id="XMLID_4_" class="st1" d="M689.86 215.38H395.61a3.92 3.92 0 01-3.92-3.92v-9.87a3.92 3.92 0 013.92-3.92h294.25a3.92 3.92 0 013.92 3.92v9.87c0 2.16-1.76 3.92-3.92 3.92z"/><g id="XMLID_2_"><path id="XMLID_3_" class="st1" d="M759.7 135.11c-1.33 0-2.64-.52-3.62-1.5l-40.8-40.8c-.6-.6-1.64-.18-1.64.68v36.33c0 2.82-2.2 5.23-5.02 5.29a5.118 5.118 0 01-5.21-5.12V78.97c0-1.79.86-3.52 2.38-4.48a5.12 5.12 0 016.36.71l40.8 40.8c.6.6 1.64.18 1.64-.68V78.99c0-2.82 2.2-5.23 5.02-5.29a5.118 5.118 0 015.21 5.12v51.02c0 1.85-.91 3.61-2.5 4.56-.83.48-1.73.71-2.62.71z"/></g><path id="XMLID_1_" class="st1" d="M688.05 99.29H672.9c-2.83 0-5.26 2.21-5.3 5.04a5.122 5.122 0 005.12 5.2h8.96c.71 0 1.28.57 1.28 1.28v12.79c0 .71-.57 1.28-1.28 1.28h-18.8c-11.91 0-21.5-9.74-20.83-21.63.6-10.75 9.54-19.31 20.44-19.31h25.4c2.83 0 5.26-2.21 5.3-5.04.04-2.86-2.26-5.2-5.12-5.2h-25.12c-16.47 0-30.37 12.79-31.13 29.24-.82 17.59 13.25 32.17 30.67 32.17h25.57c2.83 0 5.13-2.3 5.13-5.13v-25.56a5.15 5.15 0 00-5.14-5.13z"/><path fill="none" d="M-68.03-68.03h974.41v425.2H-68.03z"/></svg>