<svg version="1.1" id="Layer_1" xmlns="http://www.w3.org/2000/svg" x="0" y="0" viewBox="0 0 19.96 22.77" xml:space="preserve"><style>.st0{stroke-miterlimit:10}.st0,.st1{fill:none;stroke:#fff;stroke-linecap:round;stroke-linejoin:round}</style><path class="st0" d="M.5 10.52c-.01-.98.46-1.9 1.26-2.47l6.81-4.88c.8-.57 1.86-.58 2.67-.02l6.87 4.8c.8.56 1.28 1.47 1.29 2.45"/><path class="st1" d="M17.1 10.41l-1 .01"/><path fill="none" stroke="#fff" stroke-linecap="round" stroke-linejoin="round" stroke-dasharray="2.2458,3.3688" d="M12.73 10.44l-9.55.06"/><path class="st1" d="M1.5 10.51l-1 .01"/><path d="M4.91 5.54C4.89 2.42 7.73-.05 10.97.6c1.9.38 3.44 1.91 3.84 3.8a5.02 5.02 0 01-2.32 5.41c-1.55.93-2.53 2.58-2.52 4.39v.55" fill="none" stroke="#006272" stroke-linecap="round" stroke-linejoin="round" stroke-miterlimit="10"/><path class="st0" d="M.51 12.54c.93-.01 1.84.29 2.6.83l5.84 4.23c.62.45 1.46.44 2.07-.02l5.7-4.28c.75-.56 1.66-.87 2.6-.88h.07"/><path class="st0" d="M.5 10.52l.07 11.75 18.89-.12-.07-11.75"/></svg>