<svg version="1.1" id="Layer_1" xmlns="http://www.w3.org/2000/svg" x="0" y="0" viewBox="0 0 12.88 17.25" xml:space="preserve"><style>.st0{fill:none;stroke:#39a2b8;stroke-linecap:round;stroke-linejoin:round;stroke-miterlimit:10}</style><path class="st0" d="M.5 16.75v-3.5a2.38 2.38 0 012.38-2.38H10a2.38 2.38 0 012.38 2.38v3.5"/><path class="st0" d="M3.44 10.88l3 5.19 3-5.19M3.28 5.63c0-.47.38-.85.85-.85h.97a.85.85 0 110 1.7h-.97a.85.85 0 01-.85-.85zm3.64 0c0-.47.38-.85.85-.85h.97a.85.85 0 110 1.7h-.96c-.47 0-.86-.38-.86-.85zM4.05 3.46s1.04-.42 2.39-.42 2.39.42 2.39.42"/><path class="st0" d="M8.83 6.47v.52a2.39 2.39 0 11-4.78 0v-.52m0-1.69V.5h4.78v4.28"/></svg>