<svg version="1.1" id="Layer_1" xmlns="http://www.w3.org/2000/svg" x="0" y="0" viewBox="0 0 49.35 60.26" xml:space="preserve"><style>.st0,.st3{fill:none;stroke-width:1.6;stroke-linecap:round;stroke-linejoin:round;stroke-miterlimit:10;stroke:#006272}.st3{stroke:#39a2b8}</style><circle class="st0" cx="30.09" cy="30.13" r="18.46"/><path d="M15.14 12.9c-4.81 4.18-7.86 10.35-7.86 17.23 0 8.94 5.14 16.67 12.62 20.42" fill="none" stroke="#39a2b8" stroke-width="1.6" stroke-linecap="round" stroke-linejoin="round" stroke-dasharray="0,1.9902"/><path class="st3" d="M43.62 30.39h-3.99c-.3 0-.58.16-.73.41l-2.18 3.66c-.39.66-1.38.5-1.56-.24l-2.15-9.15c-.21-.89-1.47-.87-1.66.02l-1.87 9.01c-.19.91-1.49.9-1.67-.01L25.73 23.3c-.17-.86-1.36-.94-1.64-.11l-2.28 6.74a.86.86 0 01-.8.58h-4.45"/><path class="st0" d="M24.95.8v2.7c0 1.3-1.06 2.36-2.36 2.36h-9.78c-1.3 0-2.36-1.06-2.36-2.36V.8"/><path class="st0" d="M34.61 48.03v5.91c0 3.05-2.47 5.52-5.52 5.52H6.32C3.27 59.46.8 56.99.8 53.94V6.32C.8 3.27 3.27.8 6.32.8h22.77c3.05 0 5.52 2.47 5.52 5.52v5.91"/><path class="st3" d="M13.94 11.35l2.75.31-.32 2.82m1.78 37.29l2.65-.8-.82-2.71"/></svg>