<svg xmlns="http://www.w3.org/2000/svg" viewBox="0 0 28.9 35.82"><path d="M2.86 32.96a9.778 9.778 0 010-13.83l9.34-9.34c3.82-3.82 10.01-3.82 13.83 0s3.82 10.01 0 13.83l-9.34 9.34c-3.82 3.81-10.01 3.81-13.83 0z" fill="#39a2b8"/><path d="M26.03 23.61c-4.55 4.55-9.42 5.45-16.64 1.21-2.12-1.24-4.7-3.07-7.26-4.88.77-.77 3.15-3.25 3.15-3.25l20.75 6.92z" fill="#006272"/><path d="M5.28 2.86a9.778 9.778 0 000 13.83l6.92 6.92c3.82 3.82 10.01 3.82 13.83 0s3.82-10.01 0-13.83l-6.92-6.92C15.29-.95 9.1-.95 5.28 2.86z" fill="#b2a8a2"/><path fill="#fff" d="M25.02 15.29l-10.57-6.1v12.2z"/></svg>