<svg xmlns="http://www.w3.org/2000/svg" width="14.59" height="19.375"><defs><filter id="a" x="1343.41" y="21" width="14.59" height="19.375" filterUnits="userSpaceOnUse"><feFlood result="flood" flood-color="#505050"/><feComposite result="composite" operator="in" in2="SourceGraphic"/><feBlend result="blend" in2="SourceGraphic"/></filter></defs><path data-name="1-1" d="M1358 40.384h-14.61v-15.86h4.11V23.2a2.242 2.242 0 012.28-2.2h1.83a2.242 2.242 0 012.28 2.2v1.322h4.11v15.86zm-5.02-17.184a1.344 1.344 0 00-1.37-1.322h-1.83a1.35 1.35 0 00-1.37 1.322v1.322h4.57V23.2zm4.11 2.2h-3.2v1.762h-.91v-1.757h-4.57v1.762h-.91v-1.762h-3.19V39.5h12.78V25.4z" transform="translate(-1343.41 -21)" fill="#fff" fill-rule="evenodd" filter="url(#a)"/></svg>