<svg xmlns="http://www.w3.org/2000/svg" width="30" height="19"><path data-name="Rounded Rectangle 1 copy 2" d="M4.087 8.5l11.895 7.779a1.229 1.229 0 010 2.222 3.366 3.366 0 01-3.4 0L.688 10.723a1.23 1.23 0 010-2.223 3.369 3.369 0 013.399 0zm21.76-.046l-11.974 7.831a1.237 1.237 0 000 2.237 3.388 3.388 0 003.421 0l11.975-7.83a1.238 1.238 0 000-2.238 3.4 3.4 0 00-3.422-.001zM7 .363l8.723 5.657a.891.891 0 010 1.616 2.483 2.483 0 01-2.492 0L4.508 1.979a.891.891 0 010-1.616A2.488 2.488 0 017 .363zM22.958.33l-8.781 5.694a.9.9 0 000 1.628 2.5 2.5 0 002.508 0l8.782-5.7a.9.9 0 000-1.627 2.5 2.5 0 00-2.512.005z" fill="#fff" fill-rule="evenodd"/></svg>