<?xml version="1.0" encoding="utf-8"?><svg xmlns="http://www.w3.org/2000/svg" xmlns:xlink="http://www.w3.org/1999/xlink"><symbol id="add-to-cart" viewBox="0 0 29.11 28.88" xml:space="preserve" xmlns="http://www.w3.org/2000/svg"><style>.ast0{stroke-miterlimit:10}</style><path class="ast0" d="M28.54 13.25a.503.503 0 0 0-.36-.24l-18.3-2.69a.507.507 0 0 0-.57.42c-.04.27.15.53.42.57l17.7 2.85-3 8.34H11.38L6.15 8.82a.501.501 0 0 0-.47-.32H1.5c-.28 0-1-.28-1 0V10c0 .28.22.5.5.5s.5-.22.5-.5v-.5h3.84l5.22 13.68c.07.19.26.32.47.32h13.75c.21 0 .4-.38.47-.58l3.33-9.12c.05-.14.04-.42-.04-.55z"/><path d="M14.29 23.57c-1.39 0-2.53 1.13-2.53 2.53 0 1.39 1.13 2.53 2.53 2.53 1.39 0 2.53-1.13 2.53-2.53s-1.13-2.53-2.53-2.53zm0 4.06a1.53 1.53 0 1 1 0-3.06 1.53 1.53 0 0 1 0 3.06zm7.23-4.06c-1.39 0-2.53 1.13-2.53 2.53 0 1.39 1.13 2.53 2.53 2.53 1.39 0 2.53-1.13 2.53-2.53a2.54 2.54 0 0 0-2.53-2.53zm0 4.06a1.53 1.53 0 1 1 1.53-1.53c-.01.84-.69 1.53-1.53 1.53z" stroke-width=".5" stroke-miterlimit="10"/><path class="ast0" d="M21 5.5h2.5V8c0 .28.22.5.5.5s.5-.22.5-.5V5.5H28c.28 0 .5-.22.5-.5s-.22-.5-.5-.5h-3.5V1c0-.28-.22-.5-.5-.5s-.5.22-.5.5v3.5H21c-.28 0-.5.22-.5.5s.22.5.5.5z"/></symbol><symbol viewBox="0 0 29 20.78" id="cart" xmlns="http://www.w3.org/2000/svg"><path d="M28 6.28h-4.04c-.02-1-.06-.41-.12-.48l-5-5.13c-.2-.2-.51-.26-.71-.06-.2.2-.2.73 0 .93l4.52 4.74H6.82l4.52-4.77c.2-.2.2-.64 0-.83s-.51-.26-.71-.06l-5 5.22c-.06.06-.1-.56-.12.44H1c-.28 0-.5.22-.5.5s.22.5.5.5h1.87l2.63 12.6c.05.23.25.4.49.4h17.5c.24 0 .45-.17.49-.41L26.4 7.28H28c.28 0 .5-.22.5-.5s-.22-.5-.5-.5zm-4.92 13H6.39l-2.5-12h21.49l-2.3 12z" stroke-miterlimit="10"/></symbol><symbol viewBox="0 0 96.124 96.123" id="fb" xmlns="http://www.w3.org/2000/svg"><path d="M72.089.02L59.624 0C45.62 0 36.57 9.285 36.57 23.656v10.907H24.037a1.96 1.96 0 0 0-1.96 1.961v15.803a1.96 1.96 0 0 0 1.96 1.96H36.57v39.876a1.96 1.96 0 0 0 1.96 1.96h16.352a1.96 1.96 0 0 0 1.96-1.96V54.287h14.654a1.96 1.96 0 0 0 1.96-1.96l.006-15.803a1.963 1.963 0 0 0-1.961-1.961H56.842v-9.246c0-4.444 1.059-6.7 6.848-6.7l8.397-.003a1.96 1.96 0 0 0 1.959-1.96V1.98A1.96 1.96 0 0 0 72.089.02z"/></symbol><symbol viewBox="0 0 96.828 96.827" id="gplus" xmlns="http://www.w3.org/2000/svg"><path d="M62.617 0H39.525c-10.29 0-17.413 2.256-23.824 7.552-5.042 4.35-8.051 10.672-8.051 16.912 0 9.614 7.33 19.831 20.913 19.831 1.306 0 2.752-.134 4.028-.253l-.188.457c-.546 1.308-1.063 2.542-1.063 4.468 0 3.75 1.809 6.063 3.558 8.298l.22.283-.391.027c-5.609.384-16.049 1.1-23.675 5.787-9.007 5.355-9.707 13.145-9.707 15.404 0 8.988 8.376 18.06 27.09 18.06 21.76 0 33.146-12.005 33.146-23.863.002-8.771-5.141-13.101-10.6-17.698l-4.605-3.582c-1.423-1.179-3.195-2.646-3.195-5.364 0-2.672 1.772-4.436 3.336-5.992l.163-.165c4.973-3.917 10.609-8.358 10.609-17.964 0-9.658-6.035-14.649-8.937-17.048h7.663a.488.488 0 0 0 .266-.077l6.601-4.15A.5.5 0 0 0 62.617 0zM34.614 91.535c-13.264 0-22.176-6.195-22.176-15.416 0-6.021 3.645-10.396 10.824-12.997 5.749-1.935 13.17-2.031 13.244-2.031 1.257 0 1.889 0 2.893.126 9.281 6.605 13.743 10.073 13.743 16.678-.001 8.414-7.101 13.64-18.528 13.64zm-.125-50.779c-11.132 0-15.752-14.633-15.752-22.468 0-3.984.906-7.042 2.77-9.351 2.023-2.531 5.487-4.166 8.825-4.166 10.221 0 15.873 13.738 15.873 23.233 0 1.498 0 6.055-3.148 9.22-2.117 2.113-5.56 3.532-8.568 3.532zm60.493 4.467H82.814V33.098a.5.5 0 0 0-.5-.5H77.08a.5.5 0 0 0-.5.5v12.125H64.473a.5.5 0 0 0-.5.5v5.304a.5.5 0 0 0 .5.5H76.58V63.73a.5.5 0 0 0 .5.5h5.234c.275 0 .5-.225.5-.5V51.525h12.168a.5.5 0 0 0 .5-.5v-5.302c0-.277-.223-.5-.5-.5z"/></symbol><symbol viewBox="0 0 97.395 97.395" id="instagram" xmlns="http://www.w3.org/2000/svg"><path d="M12.501 0h72.393c6.875 0 12.5 5.09 12.5 12.5v72.395c0 7.41-5.625 12.5-12.5 12.5H12.501C5.624 97.395 0 92.305 0 84.895V12.5C0 5.09 5.624 0 12.501 0zm58.447 10.821a4.395 4.395 0 0 0-4.383 4.385v10.495a4.396 4.396 0 0 0 4.383 4.385h11.008a4.398 4.398 0 0 0 4.385-4.385V15.206a4.397 4.397 0 0 0-4.385-4.385H70.948zm15.439 30.367h-8.572a28.486 28.486 0 0 1 1.25 8.355c0 16.2-13.556 29.332-30.275 29.332-16.718 0-30.272-13.132-30.272-29.332 0-2.904.438-5.708 1.25-8.355h-8.945v41.141a3.884 3.884 0 0 0 3.872 3.872h67.822a3.883 3.883 0 0 0 3.872-3.872V41.188h-.002zM48.789 29.533c-10.802 0-19.56 8.485-19.56 18.953s8.758 18.953 19.56 18.953c10.803 0 19.562-8.485 19.562-18.953s-8.758-18.953-19.562-18.953z"/></symbol><symbol viewBox="0 0 30.25 24.08" id="like" xmlns="http://www.w3.org/2000/svg"><path d="M21.97.3c-2.81 0-5.4 1.47-6.84 3.82C13.68 1.75 11.09.26 8.28.26 3.85.26.25 3.91.25 8.41c0 2.02.76 3.31 1.91 5.26l.01.01c.02.06.06.12.1.17l12.5 9.83c.1.1.23.16.37.16.14 0 .28-.06.37-.17l12.46-9.83c.04-.05.07-.1.1-.16C29.23 11.71 30 10.42 30 8.39 30 3.93 26.4.3 21.97.3zm5.2 12.94l-12.03 9.35-12.06-9.35-.05-.09c-1.14-1.94-1.78-3.01-1.78-4.75 0-3.94 3.15-7.15 7.03-7.15a7.04 7.04 0 0 1 6.39 4.13c.08.18.26.29.46.29s.37-.11.45-.29c1.13-2.48 3.64-4.09 6.39-4.09C25.85 1.3 29 4.48 29 8.39c0 1.75-.63 2.82-1.83 4.85z" stroke-width=".5" stroke-miterlimit="10"/></symbol><symbol viewBox="0 0 31 20" id="mail" xmlns="http://www.w3.org/2000/svg"><g fill="#ff7013" stroke="#ff7013" stroke-miterlimit="10"><path d="M30.5 1c0-.28-.22-.5-.5-.5H1C.72.5.5.72.5 1v18c0 .28.22.5.5.5h29c.28 0 .5-.22.5-.5V1zm-1 17.5h-28v-17h28v17z"/><path d="M4.55 15.72a.495.495 0 0 0 .68.18l8.69-4.99 2 1.58c.01.01.03.01.04.01.08.06.17.09.27.09s.19-.04.27-.09c.01-.01.03 0 .04-.01l2-1.58 8.69 4.99c.08.04.16.07.25.07.17 0 .34-.09.43-.25.14-.24.05-.54-.18-.68l-8.34-4.79 8.4-6.64c.22-.17.25-.49.08-.7a.496.496 0 0 0-.7-.08l-10.94 8.64L5.3 2.83a.495.495 0 0 0-.7.08c-.17.22-.13.53.08.7l8.4 6.64-8.34 4.79c-.24.13-.32.44-.19.68z" stroke-width=".5"/></g></symbol><symbol id="phone" viewBox="0 0 30.5 30.5" xml:space="preserve" xmlns="http://www.w3.org/2000/svg"><style>.hst0{fill:#ff7013;stroke:#ff7013;stroke-width:.5;stroke-miterlimit:10}</style><path class="hst0" d="M7.88 30.25H2.63c-1.31 0-2.38-1.07-2.38-2.38V2.63C.25 1.32 1.32.25 2.63.25h5.25c1.31 0 2.38 1.07 2.38 2.38v25.25a2.397 2.397 0 0 1-2.38 2.37zm-5.25-29c-.76 0-1.38.62-1.38 1.38v25.25c0 .76.62 1.38 1.38 1.38h5.25c.76 0 1.38-.62 1.38-1.38V2.63c0-.76-.62-1.38-1.38-1.38H2.63z"/><path class="hst0" d="M29.75 29.25h-20c-.28 0-.5-.22-.5-.5v-27c0-.28.22-.5.5-.5h20c.28 0 .5.22.5.5v27c0 .28-.22.5-.5.5zm-19.5-1h19v-26h-19v26z"/><path class="hst0" d="M25.75 11.25h-12c-.28 0-.5-.22-.5-.5v-5c0-.28.22-.5.5-.5h12c.28 0 .5.22.5.5v5c0 .28-.22.5-.5.5zm-11.5-1h11v-4h-11v4zm3.5 14.5c-.28 0-.5-.22-.5-.5v-11c0-.28.22-.5.5-.5s.5.22.5.5v11c0 .28-.22.5-.5.5zm4 0c-.28 0-.5-.22-.5-.5v-11c0-.28.22-.5.5-.5s.5.22.5.5v11c0 .28-.22.5-.5.5z"/><path class="hst0" d="M25.25 17.25h-11c-.28 0-.5-.22-.5-.5s.22-.5.5-.5h11c.28 0 .5.22.5.5s-.22.5-.5.5zm0 4h-11c-.28 0-.5-.22-.5-.5s.22-.5.5-.5h11c.28 0 .5.22.5.5s-.22.5-.5.5z"/><path class="hst0" d="M25.75 25.25h-12c-.28 0-.5-.22-.5-.5v-12c0-.28.22-.5.5-.5h12c.28 0 .5.22.5.5v12c0 .28-.22.5-.5.5zm-11.5-1h11v-11h-11v11z"/></symbol><symbol viewBox="0 0 28.58 28.7" id="search" xmlns="http://www.w3.org/2000/svg"><path d="M27.66 25.02l-7.98-8.01c2.84-4.14 2.43-9.85-1.23-13.53-2-2.01-4.66-3.11-7.49-3.11S5.47 1.48 3.47 3.49c-4.13 4.14-4.13 10.88 0 15.02 2 2.01 4.66 3.11 7.49 3.11 2.16 0 4.23-.65 5.97-1.86l7.97 8.01c.35.35.82.55 1.33.55s.97-.19 1.33-.55l.1-.1c.73-.72.73-1.92 0-2.65zM4.18 17.81C.44 14.06.44 7.95 4.18 4.2c1.81-1.82 4.22-2.82 6.78-2.82s4.97 1 6.78 2.82c3.71 3.72 3.73 9.76.08 13.53l-.17.17a9.508 9.508 0 0 1-6.69 2.73 9.5 9.5 0 0 1-6.78-2.82zm22.77 9.16l-.1.1a.9.9 0 0 1-1.24 0l-7.85-7.88.59-.6c.03-.03.06-.05.09-.08s.05-.06.08-.09l.58-.58 7.85 7.88c.34.35.34.91 0 1.25z" stroke-width=".75" stroke-miterlimit="10"/></symbol><symbol id="share" viewBox="0 0 29.33 26.5" xml:space="preserve" xmlns="http://www.w3.org/2000/svg"><style>.jst0{stroke:#000;stroke-width:.5;stroke-miterlimit:10}</style><path class="jst0" d="M2.84 25.09c-1.04 0-1.78-.29-2.21-.88-2-2.7 4.16-9.51 10.96-14.55C18.4 4.63 26.7.73 28.7 3.42c.48.65.51 1.57.07 2.73-.1.26-.38.39-.64.29a.492.492 0 0 1-.29-.64c.21-.56.39-1.33.06-1.78-1.17-1.58-7.91.68-15.71 6.46C4.39 16.25.26 22.04 1.43 23.62c.37.5 1.29.51 1.99.44.27-.02.52.17.55.44.03.27-.17.52-.44.55-.24.03-.47.04-.69.04z"/><path class="jst0" d="M14.83 26.25c-7.17 0-13-5.83-13-13s5.83-13 13-13 13 5.83 13 13-5.83 13-13 13zm0-25c-6.62 0-12 5.38-12 12s5.38 12 12 12 12-5.38 12-12-5.39-12-12-12z"/><path class="jst0" d="M26.96 14h-24c-.28 0-.5-.22-.5-.5s.22-.5.5-.5h24c.28 0 .5.22.5.5 0 .27-.22.5-.5.5zm-2 7h-20c-.28 0-.5-.22-.5-.5s.22-.5.5-.5h20c.28 0 .5.22.5.5 0 .27-.22.5-.5.5zm-1-15h-19c-.28 0-.5-.22-.5-.5s.23-.5.5-.5h19c.28 0 .5.22.5.5s-.22.5-.5.5z"/><path class="jst0" d="M14.83 26.18c-.16 0-.32-.08-.42-.22a.498.498 0 0 1 .14-.69c3.72-2.48 6.03-7.08 6.03-12.01s-2.31-9.54-6.03-12.01a.498.498 0 0 1 .55-.83c3.99 2.66 6.47 7.58 6.47 12.84S19.1 23.44 15.11 26.1a.5.5 0 0 1-.28.08z"/><path class="jst0" d="M14.83 26.18c-.1 0-.19-.03-.28-.08-3.99-2.66-6.47-7.58-6.47-12.84S10.56 3.08 14.55.42a.498.498 0 0 1 .55.83c-3.72 2.47-6.03 7.08-6.03 12.01s2.31 9.54 6.03 12.01c.23.15.29.46.14.69-.09.15-.25.22-.41.22z"/></symbol><symbol viewBox="0 0 612 612" id="twitter" xmlns="http://www.w3.org/2000/svg"><path d="M612 116.258a250.714 250.714 0 0 1-72.088 19.772c25.929-15.527 45.777-40.155 55.184-69.411-24.322 14.379-51.169 24.82-79.775 30.48-22.907-24.437-55.49-39.658-91.63-39.658-69.334 0-125.551 56.217-125.551 125.513 0 9.828 1.109 19.427 3.251 28.606-104.326-5.24-196.835-55.223-258.75-131.174-10.823 18.51-16.98 40.078-16.98 63.101 0 43.559 22.181 81.993 55.835 104.479a125.556 125.556 0 0 1-56.867-15.756v1.568c0 60.806 43.291 111.554 100.693 123.104-10.517 2.83-21.607 4.398-33.08 4.398-8.107 0-15.947-.803-23.634-2.333 15.985 49.907 62.336 86.199 117.253 87.194-42.947 33.654-97.099 53.655-155.916 53.655-10.134 0-20.116-.612-29.944-1.721 55.567 35.681 121.536 56.485 192.438 56.485 230.948 0 357.188-191.291 357.188-357.188l-.421-16.253c24.666-17.593 46.005-39.697 62.794-64.861z"/></symbol><symbol id="user" viewBox="0 0 27.84 28.89" xml:space="preserve" xmlns="http://www.w3.org/2000/svg"><style>.lst0{stroke:#000;stroke-width:.5;stroke-miterlimit:10}</style><path class="lst0" d="M13.81 21.77c-5.26 0-10-6.53-10-8V8.89c0-.28.22-.5.5-.5s.5.22.5.5v4.88c0 .99 4.31 7 9 7s9-6.01 9-7V8.89c0-.28.22-.5.5-.5s.5.22.5.5v4.88c0 1.47-4.74 8-10 8z"/><path class="lst0" d="M27.09 28.64c-.28 0-.5-.22-.5-.5 0-4.63-2.28-8.25-5.18-8.25h-2.6c-.28 0-.5-.22-.5-.5s.22-.5.5-.5h2.6c3.52 0 6.18 3.98 6.18 9.25 0 .28-.22.5-.5.5zm-26.34 0c-.28 0-.5-.22-.5-.5 0-5.27 2.56-9.25 5.96-9.25H8.8c.28 0 .5.22.5.5s-.22.5-.5.5H6.21c-2.78 0-4.96 3.62-4.96 8.25 0 .28-.22.5-.5.5zm5.79-16.87a.47.47 0 0 1-.35-.15C3.12 8.55 3.96 6.88 4.51 5.77c.15-.3.28-.56.28-.75 0-1.58 1.95-4.25 9.25-4.25 1.47 0 2.81.11 3.98.33.58-.52 1.41-.85 2.2-.85.66 0 1.24.23 1.68.66a.499.499 0 0 1-.35.85c-.13 0-.43 0-.61.28 1.73.9 2.36 2.1 2.36 2.97 0 .22.16.61.31.98.34.83.76 1.86.31 2.85-.33.72-1.05 1.26-2.21 1.64-.05.02-.1.03-.16.03-2.12 0-4.21-1.56-5.08-3-2.29 3.33-8.99 4.26-9.93 4.26zm7.5-10c-6.77 0-8.25 2.35-8.25 3.25 0 .43-.19.8-.38 1.2-.49.98-1.05 2.09 1.34 4.54 1.74-.1 8.24-1.41 9.32-4.65.08-.23.31-.37.55-.33.24.04.42.25.42.49 0 .88 2.14 3.2 4.42 3.25.82-.29 1.34-.65 1.54-1.08.27-.59-.03-1.34-.33-2.05-.2-.48-.38-.94-.38-1.36 0-.59-.57-1.54-2.18-2.25a.497.497 0 0 1-.29-.54c.07-.4.23-.73.47-.97-.6-.03-1.33.28-1.74.73-.12.13-.3.19-.47.15-1.16-.26-2.52-.38-4.04-.38z"/><path class="lst0" d="M21.31 14.89h-5c-.28 0-.5-.22-.5-.5v-4c0-.28.22-.5.5-.5h5c.28 0 .5.22.5.5v4c0 .28-.23.5-.5.5zm-4.5-1h4v-3h-4v3zm-4.5 1h-5c-.28 0-.5-.22-.5-.5v-2.5c0-.28.22-.5.5-.5s.5.22.5.5v2h4v-3h-1c-.28 0-.5-.22-.5-.5s.22-.5.5-.5h1.5c.28 0 .5.22.5.5v4c0 .28-.23.5-.5.5z"/><path class="lst0" d="M15.81 12.89h-3c-.28 0-.5-.22-.5-.5s.22-.5.5-.5h3c.28 0 .5.22.5.5s-.23.5-.5.5z"/></symbol></svg>