<?xml version="1.0" encoding="utf-8"?>
<!-- Generator: Adobe Illustrator 23.0.3, SVG Export Plug-In . SVG Version: 6.00 Build 0)  -->
<svg version="1.1" id="Layer_1" xmlns="http://www.w3.org/2000/svg" xmlns:xlink="http://www.w3.org/1999/xlink" x="0px" y="0px"
	 viewBox="0 0 119.42 94.57" style="enable-background:new 0 0 119.42 94.57;" xml:space="preserve">
<style type="text/css">
	.st0{fill:#00FFB8;}
	.st1{fill:#FF00B3;}
	.st2{fill:#39A2B8;}
	.st3{fill:none;stroke:#FFFFFF;stroke-width:2.6;stroke-linecap:round;stroke-linejoin:round;stroke-miterlimit:10;}
	.st4{fill:none;stroke:#FFFFFF;stroke-width:1.6;stroke-linecap:round;stroke-linejoin:round;stroke-miterlimit:10;}
</style>
<g>
	<path class="st0" d="M117.67,39.48c2.33,2.33,2.33,6.11,0,8.44l-4.71,4.71c-2.33,2.33-6.11,2.33-8.44,0
		c-2.33-2.33-2.33-6.11,0-8.44l4.71-4.71C111.56,37.14,115.34,37.14,117.67,39.48z"/>
	<path class="st1" d="M93.25,80.74c10.57-10.57,10.57-27.71,0-38.28L67.39,16.6c-10.57-10.57-27.71-10.57-38.28,0
		s-10.57,27.71,0,38.28l25.86,25.86C65.54,91.31,82.68,91.31,93.25,80.74z"/>
	<path class="st0" d="M55.51,73.02c2.04,2.04,2.04,5.34,0,7.38L42.87,93.04c-2.04,2.04-5.34,2.04-7.38,0
		c-2.04-2.04-2.04-5.34,0-7.38l12.64-12.64C50.17,70.99,53.47,70.99,55.51,73.02z"/>
	<path class="st2" d="M21.55,58.68c-2.04,2.04-5.34,2.04-7.38,0L1.53,46.04c-2.04-2.04-2.04-5.34,0-7.38c2.04-2.04,5.34-2.04,7.38,0
		L21.55,51.3C23.58,53.33,23.58,56.64,21.55,58.68z"/>
	<path class="st2" d="M91.49,75.9c-7.15,0-12.96-5.81-12.96-12.96s5.81-12.96,12.96-12.96c7.15,0,12.96,5.81,12.96,12.96
		S98.64,75.9,91.49,75.9z M91.49,55.53c-4.08,0-7.41,3.32-7.41,7.41s3.32,7.41,7.41,7.41c4.08,0,7.41-3.32,7.41-7.41
		S95.58,55.53,91.49,55.53z"/>
	<path class="st0" d="M56.18,2.63c3.5-3.5,9.18-3.5,12.68,0l10.16,10.16c3.5,3.5,3.5,9.18,0,12.68c-3.5,3.5-9.18,3.5-12.68,0
		L56.18,15.31C52.68,11.81,52.68,6.13,56.18,2.63z"/>
	<g>
		<circle class="st3" cx="40.83" cy="49.98" r="5.84"/>
		<circle class="st3" cx="69.6" cy="49.98" r="5.84"/>
		<polyline class="st3" points="34.99,49.98 30.12,49.98 30.12,37.28 37.12,25.48 51.87,25.48 51.87,49.98 46.67,49.98 		"/>
		<polyline class="st3" points="74.75,47.23 80.08,47.23 80.08,37.28 51.87,37.28 		"/>
		<line class="st3" x1="51.87" y1="47.23" x2="64.45" y2="47.23"/>
	</g>
	<path class="st3" d="M57.04,37.28v-9.83c0-3.03,2.45-5.48,5.48-5.48h4.08c3.03,0,5.48,2.45,5.48,5.48v9.83"/>
	<g>
		<path class="st3" d="M67.67,17.23h3.09v-5.62c0-3.43-2.78-6.2-6.2-6.2h0l0,0c-3.43,0-6.2,2.78-6.2,6.2v5.62h3.09"/>
		<line class="st3" x1="64.56" y1="21.98" x2="64.56" y2="19.16"/>
		<path class="st3" d="M68.04,11.61v4.07c0,1.92-1.56,3.48-3.48,3.48h0c-1.92,0-3.48-1.56-3.48-3.48v-4.07"/>
		<line class="st3" x1="60.16" y1="11.6" x2="68.95" y2="11.6"/>
		<line class="st4" x1="64.56" y1="14.81" x2="64.56" y2="15.38"/>
	</g>
	<path class="st3" d="M64.56,37.28v-2.78c0-1.21,0.98-2.2,2.2-2.2l0,0c1.21,0,2.2,0.98,2.2,2.2v2.78"/>
	<path class="st3" d="M72.07,37.28v-2.78c0-1.21,0.98-2.2,2.2-2.2l0,0c1.21,0,2.2,0.98,2.2,2.2v2.78"/>
	<path class="st2" d="M39.66,29.63h7.22c0.82,0,1.49,0.67,1.49,1.49v4.67c0,0.82-0.67,1.49-1.49,1.49h-9.99
		c-1.15,0-1.86-1.25-1.28-2.24l2.77-4.67C38.65,29.91,39.14,29.63,39.66,29.63z"/>
</g>
</svg>
