<?xml version="1.0" encoding="utf-8"?>
<!-- Generator: Adobe Illustrator 23.0.3, SVG Export Plug-In . SVG Version: 6.00 Build 0)  -->
<svg version="1.1" id="Layer_1" xmlns="http://www.w3.org/2000/svg" xmlns:xlink="http://www.w3.org/1999/xlink" x="0px" y="0px"
	 viewBox="0 0 98.72 92.89" style="enable-background:new 0 0 98.72 92.89;" xml:space="preserve">
<style type="text/css">
	.st0{fill:#39A2B8;}
	.st1{fill:#00FFB8;}
	.st2{fill:#FF00B3;}
	.st3{fill:none;stroke:#FFFFFF;stroke-width:2.6;stroke-linecap:round;stroke-linejoin:round;stroke-miterlimit:10;}
	.st4{fill:none;stroke:#FFFFFF;stroke-width:1.6;stroke-linecap:round;stroke-linejoin:round;stroke-miterlimit:10;}
</style>
<path class="st0" d="M28.5,11.39c3.92,3.92,3.92,10.28,0,14.19L17.13,36.95c-3.92,3.92-10.28,3.92-14.19,0s-3.92-10.28,0-14.19
	l11.37-11.37C18.23,7.47,24.58,7.47,28.5,11.39z"/>
<path class="st1" d="M56.4,2.59c3.45,3.45,3.45,9.05,0,12.5L40.14,31.34c-3.45,3.45-9.05,3.45-12.5,0s-3.45-9.05,0-12.5L43.9,2.59
	C47.35-0.86,52.95-0.86,56.4,2.59z"/>
<path class="st2" d="M15.06,84.96c-10.57-10.57-10.57-27.71,0-38.28l25.86-25.86c10.57-10.57,27.71-10.57,38.28,0
	s10.57,27.71,0,38.28L53.34,84.96C42.77,95.54,25.64,95.54,15.06,84.96z"/>
<path class="st1" d="M23.46,61.58c2.04,2.04,2.04,5.34,0,7.38L10.82,81.6c-2.04,2.04-5.34,2.04-7.38,0c-2.04-2.04-2.04-5.34,0-7.38
	l12.64-12.64C18.11,59.55,21.42,59.55,23.46,61.58z"/>
<path class="st1" d="M87.13,48.17c-3.64,0-6.6-2.96-6.6-6.6c0-3.64,2.96-6.6,6.6-6.6s6.6,2.96,6.6,6.6
	C93.73,45.21,90.77,48.17,87.13,48.17z M87.13,29.99c-6.39,0-11.58,5.2-11.58,11.58s5.2,11.58,11.58,11.58s11.58-5.2,11.58-11.58
	S93.52,29.99,87.13,29.99z"/>
<path class="st0" d="M49.38,62.75c3.5-3.5,9.18-3.5,12.68,0l10.16,10.16c3.5,3.5,3.5,9.18,0,12.68c-3.5,3.5-9.18,3.5-12.68,0
	L49.38,75.43C45.88,71.93,45.88,66.25,49.38,62.75z"/>
<g>
	<path class="st3" d="M70.32,58.1h3.87c2.01,0,3.58-1.74,3.36-3.75l-1.84-17.12c-0.32-2.98-2.84-5.24-5.84-5.24h-6.97
		c-0.79,0-1.37,0.72-1.22,1.49v0c0.16,0.77-0.43,1.49-1.22,1.49H48.54c-0.79,0-1.37-0.72-1.22-1.49v0c0.16-0.77-0.43-1.49-1.22-1.49
		h-6.97c-3,0-5.52,2.26-5.84,5.24l-1.84,17.12c-0.21,2,1.35,3.75,3.36,3.75h3.87c2.07,0,3.86-1.46,4.28-3.49l0.58-2.81
		c0.43-2.11,2.29-3.62,4.44-3.62h13.02c2.15,0,4.01,1.51,4.44,3.62l0.58,2.81C66.46,56.64,68.25,58.1,70.32,58.1z"/>
	<line class="st3" x1="69.32" y1="39.45" x2="69.32" y2="46.2"/>
	<line class="st3" x1="72.69" y1="42.83" x2="65.94" y2="42.83"/>
	<circle class="st3" cx="39.84" cy="42.83" r="2.94"/>
</g>
<path class="st3" d="M32.82,41.71h-14.9c-1.01,0-1.83-0.82-1.83-1.83V14.73c0-1.01,0.82-1.83,1.83-1.83h39.84
	c1.01,0,1.83,0.82,1.83,1.83v20.24"/>
<path class="st4" d="M29.73,37.71h-9.78V18.19c0-0.72,0.58-1.3,1.3-1.3h34.48v13.09"/>
</svg>
