<?xml version="1.0" encoding="utf-8"?>
<!-- Generator: Adobe Illustrator 23.0.3, SVG Export Plug-In . SVG Version: 6.00 Build 0)  -->
<svg version="1.1" id="Layer_1" xmlns="http://www.w3.org/2000/svg" xmlns:xlink="http://www.w3.org/1999/xlink" x="0px" y="0px"
	 viewBox="0 0 76.97 68.79" style="enable-background:new 0 0 76.97 68.79;" xml:space="preserve">
<style type="text/css">
	.st0{fill:#B6ADA5;}
	.st1{fill:#C5BDB6;}
	.st2{fill:#DBD9D2;}
	.st3{fill:none;stroke:#FFFFFF;stroke-width:1.6;stroke-linecap:round;stroke-linejoin:round;stroke-miterlimit:10;}
</style>
<g>
	<path class="st0" d="M75.03,29.53c2.59,2.59,2.59,6.78,0,9.37L58.98,54.95c-2.59,2.59-6.78,2.59-9.37,0s-2.59-6.78,0-9.37
		l16.05-16.05C68.24,26.94,72.44,26.94,75.03,29.53z"/>
	<path class="st1" d="M14.28,58.42c-7.93-7.93-7.93-20.78,0-28.71l19.39-19.39c7.93-7.93,20.78-7.93,28.71,0s7.93,20.78,0,28.71
		L42.99,58.42C35.06,66.34,22.21,66.34,14.28,58.42z"/>
	<path class="st0" d="M34.08,52.63c1.53,1.53,1.53,4.01,0,5.53l-9.48,9.48c-1.53,1.53-4.01,1.53-5.53,0c-1.53-1.53-1.53-4.01,0-5.53
		l9.48-9.48C30.07,51.1,32.55,51.1,34.08,52.63z"/>
	<path class="st2" d="M12.97,45.59C5.82,45.59,0,39.77,0,32.62s5.82-12.97,12.97-12.97s12.97,5.82,12.97,12.97
		S20.12,45.59,12.97,45.59z M12.97,26.62c-3.31,0-6,2.69-6,6c0,3.31,2.69,6,6,6s6-2.69,6-6C18.97,29.31,16.28,26.62,12.97,26.62z"/>
	<path class="st0" d="M21.59,1.97c2.63-2.63,6.89-2.63,9.51,0l7.62,7.62c2.63,2.63,2.63,6.89,0,9.51c-2.63,2.63-6.89,2.63-9.51,0
		l-7.62-7.62C18.96,8.85,18.96,4.6,21.59,1.97z"/>
	<g>
		<path class="st2" d="M59.31,49.51H41.2c-2.49,0-4.51-2.02-4.51-4.51v0c0-2.49,2.02-4.51,4.51-4.51h18.11
			c2.49,0,4.51,2.02,4.51,4.51v0C63.82,47.49,61.8,49.51,59.31,49.51z"/>
		<path class="st0" d="M54.91,31.53H45.6c-1.88,0-3.41-1.53-3.41-3.41v0c0-1.88,1.53-3.41,3.41-3.41h9.32
			c1.88,0,3.41,1.53,3.41,3.41v0C58.32,30,56.79,31.53,54.91,31.53z"/>
		<path class="st3" d="M57.81,47.26H39.7c-2.49,0-4.51-2.02-4.51-4.51v0c0-2.49,2.02-4.51,4.51-4.51h18.11
			c2.49,0,4.51,2.02,4.51,4.51v0C62.32,45.24,60.3,47.26,57.81,47.26z"/>
		<path class="st3" d="M54.81,38.25H42.7c-2.45,0-4.43-1.98-4.43-4.43v0c0-2.45,1.98-4.43,4.43-4.43h12.1
			c2.45,0,4.43,1.98,4.43,4.43v0C59.23,36.27,57.25,38.25,54.81,38.25z"/>
		<path class="st3" d="M53.41,29.28H44.1c-1.88,0-3.41-1.53-3.41-3.41v0c0-1.88,1.53-3.41,3.41-3.41h9.32
			c1.88,0,3.41,1.53,3.41,3.41v0C56.82,27.75,55.29,29.28,53.41,29.28z"/>
		<path class="st3" d="M46.87,10.04l-3.6,9.23c-0.58,1.48,0.52,3.09,2.11,3.09h6.75c1.59,0,2.69-1.6,2.11-3.09l-3.6-9.23
			C49.97,8.32,47.54,8.32,46.87,10.04z"/>
	</g>
	<g>
		<circle class="st3" cx="31.72" cy="15.45" r="5.95"/>
		<line class="st3" x1="25.76" y1="15.45" x2="33.78" y2="15.45"/>
		<path class="st3" d="M30.1,9.72c-0.01-0.07-0.01-0.15-0.01-0.22c0-0.9,0.73-1.63,1.63-1.63c0.9,0,1.63,0.73,1.63,1.63
			c0,0.08-0.01,0.15-0.01,0.22"/>
		<path class="st3" d="M32.59,21.34l0.67,13.88c0.04,0.88-0.66,1.62-1.54,1.62h0c-0.88,0-1.58-0.74-1.54-1.62l0.67-13.88"/>
		<line class="st3" x1="37.67" y1="15.45" x2="36.19" y2="15.45"/>
	</g>
</g>
</svg>
