<?xml version="1.0" encoding="utf-8"?>
<!-- Generator: Adobe Illustrator 23.0.3, SVG Export Plug-In . SVG Version: 6.00 Build 0)  -->
<svg version="1.1" id="Layer_1" xmlns="http://www.w3.org/2000/svg" xmlns:xlink="http://www.w3.org/1999/xlink" x="0px" y="0px"
	 viewBox="0 0 98.22 65.41" style="enable-background:new 0 0 98.22 65.41;" xml:space="preserve">
<style type="text/css">
	.st0{fill:#39A2B8;}
	.st1{fill:none;stroke:#006272;stroke-width:1.6;stroke-linecap:round;stroke-linejoin:round;stroke-miterlimit:10;}
	.st2{fill:none;stroke:#FFFFFF;stroke-width:1.6;stroke-linecap:round;stroke-linejoin:round;stroke-miterlimit:10;}
	.st3{fill:#006272;}
	.st4{fill:none;stroke:#FFFFFF;stroke-linecap:round;stroke-linejoin:round;stroke-miterlimit:10;}
	.st5{fill:none;stroke:#39A2B8;stroke-linecap:round;stroke-linejoin:round;stroke-miterlimit:10;}
	.st6{fill:none;stroke:#006272;stroke-linecap:round;stroke-linejoin:round;stroke-miterlimit:10;}
	.st7{fill:none;stroke:#006272;stroke-width:4.5;stroke-linecap:round;stroke-linejoin:round;stroke-miterlimit:10;}
	.st8{fill:none;stroke:#39A2B8;stroke-width:4.5;stroke-linecap:round;stroke-miterlimit:10;}
</style>
<g>
	<g>
		<path class="st0" d="M62.24,16.88c-7.08-7.08-18.57-7.08-25.65,0l-7.73,7.73c-7.08,7.08-7.08,18.57,0,25.65
			c2.26,2.26,4.98,3.79,7.85,4.61l8.09,10.54V55.29c3.56-0.62,6.97-2.29,9.71-5.03l7.73-7.73C69.33,35.44,69.33,23.96,62.24,16.88z"
			/>
		<path class="st1" d="M44.8,32.83H51v-7.55c0-3.43-2.78-6.2-6.2-6.2h0h0c-3.43,0-6.2,2.78-6.2,6.2v7.55H44.8"/>
		<path class="st2" d="M36.44,49.59v-7.03c0-3.77,3.05-6.82,6.82-6.82h3.08c3.77,0,6.82,3.05,6.82,6.82"/>
		<line class="st2" x1="44.8" y1="35.74" x2="44.8" y2="32.83"/>
		<path class="st2" d="M48.28,25.28v4.07c0,1.92-1.56,3.48-3.48,3.48h0c-1.92,0-3.48-1.56-3.48-3.48v-4.07"/>
		<line class="st1" x1="40.41" y1="25.27" x2="49.19" y2="25.27"/>
		<g>
			<path class="st3" d="M27.62,4.47c-5.06-5.06-13.25-5.06-18.31,0L3.79,9.99c-5.06,5.06-5.06,13.25,0,18.31
				c1.62,1.62,3.55,2.71,5.6,3.29l5.77,7.52v-7.22c2.54-0.44,4.97-1.63,6.93-3.59l5.52-5.52C32.68,17.72,32.68,9.53,27.62,4.47z"/>
			<g>
				<path class="st4" d="M21.57,21.17c0-2.15-1.74-3.88-3.88-3.88h-6.76c-2.15,0-3.88,1.74-3.88,3.88v6.25"/>
				<line class="st4" x1="14.3" y1="17.29" x2="14.3" y2="15.21"/>
				<path class="st4" d="M11.82,9.82v2.9c0,1.37,1.11,2.49,2.49,2.49h0c1.37,0,2.49-1.11,2.49-2.49v-2.9"/>
				<path class="st5" d="M11.82,9.82c0-1.37,1.11-2.49,2.49-2.49h0c1.37,0,2.49,1.11,2.49,2.49c0,0-2.91,0.13-3.21-0.54
					C13.17,9.64,11.82,9.82,11.82,9.82z"/>
				<path class="st4" d="M11.82,10.38h-0.67c-0.42,0-0.77,0.34-0.77,0.77v0.6c0,0.42,0.34,0.77,0.77,0.77h0.67"/>
				<path class="st4" d="M16.79,10.38h0.67c0.42,0,0.77,0.34,0.77,0.77v0.6c0,0.42-0.34,0.77-0.77,0.77h-0.67"/>
				<line class="st5" x1="16.79" y1="10.94" x2="16.79" y2="9.82"/>
				<line class="st5" x1="11.82" y1="9.82" x2="11.82" y2="10.94"/>
				<line class="st4" x1="14.3" y1="11.89" x2="14.3" y2="12.8"/>
			</g>
		</g>
		<line class="st2" x1="44.8" y1="28.48" x2="44.8" y2="29.05"/>
		<g>
			<path class="st0" d="M70.6,6.04c5.06-5.06,13.25-5.06,18.31,0l5.52,5.52c5.06,5.06,5.06,13.25,0,18.31
				c-1.62,1.62-3.55,2.71-5.6,3.29l-5.77,7.52v-7.22c-2.54-0.44-4.97-1.63-6.93-3.59l-5.52-5.52C65.54,19.29,65.54,11.1,70.6,6.04z"
				/>
			<path class="st4" d="M80.57,15.08h-1.95v-3.04c0-2.45,1.98-4.43,4.43-4.43h0l0,0c2.45,0,4.43,1.98,4.43,4.43v3.04h-1.95"/>
			<path class="st4" d="M89.02,28.77v-4.39c0-2.69-2.18-4.87-4.87-4.87h-2.2c-2.69,0-4.87,2.18-4.87,4.87"/>
			<line class="st4" x1="83.06" y1="19.51" x2="83.06" y2="17.43"/>
			<path class="st4" d="M80.57,12.04v2.9c0,1.37,1.11,2.49,2.49,2.49h0c1.37,0,2.49-1.11,2.49-2.49v-2.9"/>
			<line class="st4" x1="86.19" y1="12.03" x2="79.92" y2="12.03"/>
			<path class="st6" d="M84.52,14.09L84.52,14.09c0.57,0,1.03-0.46,1.03-1.03v0c0-0.57-0.46-1.03-1.03-1.03h0
				c-0.57,0-1.03,0.46-1.03,1.03v0C83.49,13.63,83.95,14.09,84.52,14.09z"/>
			<path class="st6" d="M81.59,14.09L81.59,14.09c0.57,0,1.03-0.46,1.03-1.03v0c0-0.57-0.46-1.03-1.03-1.03l0,0
				c-0.57,0-1.03,0.46-1.03,1.03v0C80.57,13.63,81.03,14.09,81.59,14.09z"/>
			<line class="st4" x1="83.06" y1="15.18" x2="83.06" y2="14.73"/>
		</g>
	</g>
	<line class="st7" x1="64.57" y1="52.07" x2="58.52" y2="58.12"/>
	<line class="st7" x1="27.47" y1="58.12" x2="24.45" y2="61.15"/>
	<line class="st8" x1="2.99" y1="36.15" x2="9.04" y2="42.2"/>
	<line class="st8" x1="36.44" y1="11.74" x2="45.93" y2="2.25"/>
</g>
</svg>
