<?xml version="1.0" encoding="utf-8"?>
<!-- Generator: Adobe Illustrator 23.0.3, SVG Export Plug-In . SVG Version: 6.00 Build 0)  -->
<svg version="1.1" id="Layer_1" xmlns="http://www.w3.org/2000/svg" xmlns:xlink="http://www.w3.org/1999/xlink" x="0px" y="0px"
	 viewBox="0 0 109.87 60.42" style="enable-background:new 0 0 109.87 60.42;" xml:space="preserve">
<style type="text/css">
	.st0{fill:#006272;}
	.st1{fill:none;stroke:#FFFFFF;stroke-linecap:round;stroke-linejoin:round;stroke-miterlimit:10;}
	.st2{fill:none;stroke:#FFFFFF;stroke-width:1.6;stroke-linecap:round;stroke-linejoin:round;stroke-miterlimit:10;}
	.st3{fill:#39A2B8;}
	.st4{fill:#FFFFFF;}
	.st5{fill:none;stroke:#39A2B8;stroke-width:1.6;stroke-miterlimit:10;}
	.st6{fill:none;stroke:#006272;stroke-width:4.5;stroke-linecap:round;stroke-linejoin:round;stroke-miterlimit:10;}
	.st7{fill:none;stroke:#39A2B8;stroke-width:4.5;stroke-linecap:round;stroke-miterlimit:10;}
</style>
<g>
	<g>
		<path class="st0" d="M27.82,54.99c-7.08-7.08-7.08-18.55,0-25.63l11.61-11.61c7.08-7.08,18.55-7.08,25.63,0s7.08,18.55,0,25.63
			L53.44,54.99C46.37,62.06,34.9,62.06,27.82,54.99z"/>
		<path class="st0" d="M47.56,54.34c-5.64,5.64-14.79,5.64-20.44,0L6.48,33.7c-5.64-5.64-5.64-14.79,0-20.44s14.79-5.64,20.44,0
			L47.56,33.9C53.21,39.54,53.21,48.69,47.56,54.34z"/>
		<line class="st1" x1="36.65" y1="42.96" x2="18.73" y2="25.04"/>
		<line class="st1" x1="23.59" y1="29.9" x2="13.87" y2="29.9"/>
		<line class="st1" x1="27.69" y1="34" x2="27.69" y2="23.29"/>
		<line class="st1" x1="36.65" y1="48.72" x2="45.55" y2="39.81"/>
		<line class="st2" x1="36.65" y1="59.62" x2="36.65" y2="28.65"/>
	</g>
	<g>
		<g>
			<path class="st3" d="M76.85,45.11c5.1-5.1,5.1-13.37,0-18.47l-5.58-5.58c-5.1-5.1-13.37-5.1-18.47,0s-5.1,13.37,0,18.47
				l5.58,5.58C63.48,50.21,71.75,50.21,76.85,45.11z"/>
			<path class="st3" d="M61.35,35.21c4.98,0,9.01-4.03,9.01-9.01v-8.16c0-4.98-4.03-9.01-9.01-9.01s-9.01,4.03-9.01,9.01v8.16
				C52.34,31.17,56.38,35.21,61.35,35.21z"/>
			<path class="st3" d="M53.57,14.37l-6.49,2.34c-0.88,0.32-0.84,1.58,0.05,1.84l7.75,2.28L53.57,14.37z"/>
			<path class="st2" d="M72.66,40.92c3.33-3.33,3.33-8.71,0-12.04l-3.64-3.64c-3.33-3.33-8.71-3.33-12.04,0
				c-3.33,3.33-3.33,8.71,0,12.04l3.64,3.64C63.95,44.25,69.34,44.25,72.66,40.92z"/>
			<line class="st1" x1="70.36" y1="42.55" x2="63.42" y2="35.61"/>
			<line class="st1" x1="66.89" y1="43.4" x2="63.3" y2="39.82"/>
			<line class="st1" x1="72.66" y1="40.92" x2="67.97" y2="36.23"/>
		</g>
		<circle class="st4" cx="55.52" cy="17.23" r="1.47"/>
		<polygon class="st3" points="65.5,55.99 65.5,46.6 71.28,48.47 		"/>
	</g>
	<g>
		<path class="st5" d="M100.83,19.01h3.09c2.85,0,5.16,2.31,5.16,5.16s-2.31,5.16-5.16,5.16H83.25c-2.85,0-5.16-2.31-5.16-5.16"/>
		<path class="st5" d="M75.59,6.92c0,3.38-2.74,6.12-6.12,6.12h-8.49c-3.38,0-6.12-2.74-6.12-6.12S57.6,0.8,60.98,0.8h8.49
			C72.85,0.8,75.59,3.54,75.59,6.92z"/>
		<path class="st5" d="M92.25,24.17h-6.91c-3.24,0-5.87-2.63-5.87-5.87s2.63-5.87,5.87-5.87h16.4"/>
		<path class="st5" d="M75.19,4.76h17.06c5.36,0,9.7,4.34,9.7,9.7s-4.34,9.7-9.7,9.7h-19.6c-5.36,0-9.7-4.34-9.7-9.7
			c0-0.48,0.04-0.96,0.1-1.42"/>
	</g>
	<line class="st6" x1="87.15" y1="46.6" x2="95.48" y2="38.26"/>
	<line class="st7" x1="26.31" y1="48.93" x2="17.82" y2="57.42"/>
	<line class="st7" x1="38.89" y1="4.76" x2="32.71" y2="10.94"/>
	<line class="st6" x1="2.25" y1="36.37" x2="7.49" y2="41.61"/>
</g>
</svg>
