<?xml version="1.0" encoding="utf-8"?>
<!-- Generator: Adobe Illustrator 23.0.3, SVG Export Plug-In . SVG Version: 6.00 Build 0)  -->
<svg version="1.1" id="Layer_1" xmlns="http://www.w3.org/2000/svg" xmlns:xlink="http://www.w3.org/1999/xlink" x="0px" y="0px"
	 viewBox="0 0 9.84 17.11" style="enable-background:new 0 0 9.84 17.11;" xml:space="preserve">
<style type="text/css">
	.st0{fill:none;stroke:#006272;stroke-linecap:round;stroke-linejoin:round;stroke-miterlimit:10;}
</style>
<g>
	<path class="st0" d="M0.5,4.92c0-2.41,1.93-4.37,4.33-4.42c2.48-0.05,4.51,2.03,4.51,4.51v3.8c0,1.74-1.19,3.21-2.8,3.63
		c-0.56,0.15-0.95,0.66-0.95,1.24v0.72c0,1.17-0.91,2.16-2.08,2.21c-1.23,0.04-2.23-0.94-2.23-2.15v-0.52
		c0-0.43-0.35-0.78-0.78-0.78h0"/>
	<path class="st0" d="M2.77,8.02v-3.1c0-1.16,0.95-2.13,2.11-2.15c0,0,0,0,0,0c1.21,0,2.2,1.03,2.2,2.24v3.8
		c0,0.67-0.45,1.26-1.1,1.43c-0.67,0.17-1.25,0.54-1.7,1.02"/>
</g>
</svg>
