<?xml version="1.0" encoding="utf-8"?>
<!-- Generator: Adobe Illustrator 23.0.3, SVG Export Plug-In . SVG Version: 6.00 Build 0)  -->
<svg version="1.1" id="Layer_1" xmlns="http://www.w3.org/2000/svg" xmlns:xlink="http://www.w3.org/1999/xlink" x="0px" y="0px"
	 viewBox="0 0 242.52 392.06" style="enable-background:new 0 0 242.52 392.06;" xml:space="preserve">
<style type="text/css">
	.st0{fill:#00FFB8;}
	.st1{fill:#39A2B8;}
	.st2{fill:#FF00B3;}
</style>
<path class="st0" d="M88.53,369.54c-27.36,0-49.63-22.26-49.63-49.63s22.26-49.63,49.63-49.63s49.63,22.26,49.63,49.63
	S115.89,369.54,88.53,369.54z M88.53,290.09c-16.44,0-29.82,13.38-29.82,29.82s13.38,29.82,29.82,29.82s29.82-13.38,29.82-29.82
	S104.97,290.09,88.53,290.09z"/>
<path class="st1" d="M239.62,276.79c3.88,3.88,3.88,10.17,0,14.04l-35.32,35.32c-3.88,3.88-10.17,3.88-14.04,0
	c-3.88-3.88-3.88-10.17,0-14.04l35.32-35.32C229.45,272.91,235.74,272.91,239.62,276.79z"/>
<path class="st2" d="M37.11,59.54c3.88,3.88,3.88,10.17,0,14.04L16.95,93.74c-3.88,3.88-10.17,3.88-14.04,0
	c-3.88-3.88-3.88-10.17,0-14.04l20.16-20.16C26.95,55.66,33.23,55.66,37.11,59.54z"/>
<path class="st0" d="M84.19,2.91c3.88-3.88,10.17-3.88,14.04,0l35.32,35.32c3.88,3.88,3.88,10.17,0,14.04
	c-3.88,3.88-10.17,3.88-14.04,0L84.19,16.95C80.31,13.07,80.31,6.79,84.19,2.91z"/>
<path class="st2" d="M156.19,358.91c3.88-3.88,10.17-3.88,14.04,0l16.21,16.21c3.88,3.88,3.88,10.17,0,14.04
	c-3.88,3.88-10.17,3.88-14.04,0l-16.21-16.21C152.31,369.07,152.31,362.79,156.19,358.91z"/>
</svg>
