<svg id="Layer_1" data-name="Layer 1" xmlns="http://www.w3.org/2000/svg" viewBox="0 0 99.93 94.15"><title>for-whom-shape</title><path d="M474.62,1152.75a10.79,10.79,0,0,0-12-2.24,10.79,10.79,0,0,0-12,2.24L424.45,1179l-7-7a2.63,2.63,0,1,0-3.73,3.72l7.08,7.09A10.8,10.8,0,0,0,437,1196.94l25.62-25.62,9.47,9.48a8.77,8.77,0,1,0,13.71,7.24c0-.07,0-.13,0-.19a10.65,10.65,0,0,0,5.65-3,10.79,10.79,0,0,0,0-15.27Zm2.43,40.56a5.25,5.25,0,0,1-2.37-10l1.51,1.51a10.77,10.77,0,0,0,6.11,3.05s0,.08,0,.12A5.28,5.28,0,0,1,477.05,1193.31Z" transform="translate(-412.57 -1123.66)" style="fill:#006272"/><path d="M460.68,1139.45l10.91-10.92a2.63,2.63,0,0,0-3.72-3.72L457,1135.72a2.64,2.64,0,0,0,3.73,3.73Z" transform="translate(-412.57 -1123.66)" style="fill:#006272"/><path d="M511.73,1174.77l-10.92-10.92a2.63,2.63,0,0,0-3.72,3.73L508,1178.5a2.64,2.64,0,0,0,3.73-3.73Z" transform="translate(-412.57 -1123.66)" style="fill:#006272"/><path d="M446.21,1197.74l-15.57,15.57a2.63,2.63,0,0,0,3.72,3.73l15.58-15.57a2.64,2.64,0,0,0-3.73-3.73Z" transform="translate(-412.57 -1123.66)" style="fill:#006272"/><path d="M466.78,1200.63l-5.07,5.07a2.64,2.64,0,0,0,3.73,3.73l5.07-5.07a2.64,2.64,0,1,0-3.73-3.73Z" transform="translate(-412.57 -1123.66)" style="fill:#006272"/><path d="M491.09,1184.5a10.8,10.8,0,0,1-15.28,0L459,1167.65a10.8,10.8,0,0,1,15.27-15.27l16.85,16.84A10.8,10.8,0,0,1,491.09,1184.5Z" transform="translate(-412.57 -1123.66)" style="fill:#ff00b3"/><path d="M421.37,1196.56a10.79,10.79,0,0,1,0-15.27l28.91-28.91a10.8,10.8,0,0,1,15.28,15.27l-28.92,28.91A10.79,10.79,0,0,1,421.37,1196.56Z" transform="translate(-412.57 -1123.66)" style="fill:#00ffb8"/><path d="M471.22,1124.43a2.64,2.64,0,0,1,0,3.73l-10.92,10.91a2.63,2.63,0,1,1-3.73-3.72l10.92-10.92A2.64,2.64,0,0,1,471.22,1124.43Z" transform="translate(-412.57 -1123.66)" style="fill:#39a2b8"/><path d="M496.71,1163.48a2.64,2.64,0,0,1,3.73,0l10.91,10.91a2.64,2.64,0,1,1-3.73,3.73l-10.91-10.91A2.64,2.64,0,0,1,496.71,1163.48Z" transform="translate(-412.57 -1123.66)" style="fill:#00ffb8"/><path d="M449.56,1197.36a2.64,2.64,0,0,1,0,3.73L434,1216.66a2.63,2.63,0,1,1-3.73-3.72l15.58-15.58A2.63,2.63,0,0,1,449.56,1197.36Z" transform="translate(-412.57 -1123.66)" style="fill:#39a2b8"/><path d="M428,1186.21a2.64,2.64,0,0,1-3.73,0l-10.91-10.91a2.63,2.63,0,0,1,3.72-3.73L428,1182.49A2.63,2.63,0,0,1,428,1186.21Z" transform="translate(-412.57 -1123.66)" style="fill:#ff00b3"/><path d="M476.67,1196.43a8.77,8.77,0,1,1,8.77-8.77A8.78,8.78,0,0,1,476.67,1196.43Zm0-14a5.27,5.27,0,1,0,5.27,5.27A5.28,5.28,0,0,0,476.67,1182.39Z" transform="translate(-412.57 -1123.66)" style="fill:#00ffb8"/><path d="M470.13,1200.25a2.64,2.64,0,0,1,0,3.73l-5.07,5.07a2.64,2.64,0,0,1-3.73-3.73l5.08-5.07A2.63,2.63,0,0,1,470.13,1200.25Z" transform="translate(-412.57 -1123.66)" style="fill:#ff00b3"/></svg>