<?xml version="1.0" encoding="utf-8"?>
<!-- Generator: Adobe Illustrator 23.0.3, SVG Export Plug-In . SVG Version: 6.00 Build 0)  -->
<svg version="1.1" id="Layer_1" xmlns="http://www.w3.org/2000/svg" xmlns:xlink="http://www.w3.org/1999/xlink" x="0px" y="0px"
	 viewBox="0 0 25.17 25.11" style="enable-background:new 0 0 25.17 25.11;" xml:space="preserve">
<style type="text/css">
	.st0{fill:none;stroke:#39A2B8;stroke-width:1.5;stroke-linecap:round;stroke-linejoin:round;stroke-miterlimit:10;}
	.st1{fill:none;stroke:#39A2B8;stroke-linecap:round;stroke-linejoin:round;stroke-miterlimit:10;}
	.st2{fill:none;stroke:#006272;stroke-linecap:round;stroke-linejoin:round;stroke-miterlimit:10;}
	.st3{fill:none;stroke:#AC162C;stroke-width:1.5;stroke-linecap:round;stroke-miterlimit:10;}
</style>
<g>
	<g>
		<polyline class="st0" points="17.76,16.53 10.77,18.75 10.77,6.37 17.76,8.59 		"/>
		<polyline class="st0" points="17.76,8.59 24.42,8.59 24.42,16.53 17.76,16.53 		"/>
		<line class="st1" x1="17.76" y1="16.53" x2="17.76" y2="11.52"/>
		<line class="st0" x1="21.09" y1="16.53" x2="19.2" y2="22.96"/>
	</g>
	<g>
		<path class="st2" d="M7.62,17.99c-1.05-1.56-1.67-3.44-1.67-5.47c0-2.01,0.61-3.88,1.65-5.44"/>
		<path class="st2" d="M5.91,21.3c-1.69-2.51-2.68-5.53-2.68-8.78c0-3.23,0.97-6.23,2.64-8.73"/>
		<path class="st2" d="M4.19,24.61C1.86,21.16,0.5,17,0.5,12.52c0-4.45,1.34-8.58,3.64-12.02"/>
	</g>
</g>
<line class="st3" x1="19.2" y1="4.11" x2="2.35" y2="20.97"/>
</svg>
