<?xml version="1.0" encoding="utf-8"?>
<!-- Generator: Adobe Illustrator 23.0.3, SVG Export Plug-In . SVG Version: 6.00 Build 0)  -->
<svg version="1.1" id="Layer_1" xmlns="http://www.w3.org/2000/svg" xmlns:xlink="http://www.w3.org/1999/xlink" x="0px" y="0px"
	 viewBox="0 0 24.66 28.82" style="enable-background:new 0 0 24.66 28.82;" xml:space="preserve">
<style type="text/css">
	.st0{fill:none;stroke:#39A2B8;stroke-width:1.5;stroke-linecap:round;stroke-linejoin:round;stroke-miterlimit:10;}
	.st1{fill:none;stroke:#006272;stroke-linecap:round;stroke-linejoin:round;stroke-miterlimit:10;}
</style>
<g>
	<g>
		<path class="st0" d="M5.92,7.27c0-3.99,3.58-7.14,7.7-6.41c2.62,0.46,4.77,2.61,5.23,5.23c0.46,2.65-0.67,5.07-2.6,6.47
			c-2.28,1.65-3.81,4.12-3.81,6.93v3"/>
		<line class="st0" x1="12.44" y1="25.24" x2="12.44" y2="27.05"/>
	</g>
	<g>
		<g>
			<g>
				<path class="st1" d="M18.96,17.84c0-1.59,1.43-2.85,3.08-2.56c1.05,0.18,1.91,1.04,2.09,2.09c0.19,1.06-0.27,2.03-1.04,2.58
					c-0.91,0.66-1.52,1.65-1.52,2.77l0,1.1"/>
			</g>
			<g>
				<line class="st1" x1="21.56" y1="25.24" x2="21.56" y2="25.83"/>
			</g>
		</g>
	</g>
	<g>
		<g>
			<g>
				<path class="st1" d="M0.5,16.83c0-2.38,2.14-4.26,4.6-3.83c1.57,0.27,2.85,1.56,3.12,3.12c0.28,1.58-0.4,3.03-1.55,3.86
					c-1.36,0.98-2.28,2.46-2.28,4.14v1.71"/>
			</g>
			<g>
				<line class="st1" x1="4.39" y1="27.56" x2="4.39" y2="28.32"/>
			</g>
		</g>
	</g>
</g>
</svg>
