<?xml version="1.0" encoding="utf-8"?>
<!-- Generator: Adobe Illustrator 23.0.3, SVG Export Plug-In . SVG Version: 6.00 Build 0)  -->
<svg version="1.1" id="Layer_1" xmlns="http://www.w3.org/2000/svg" xmlns:xlink="http://www.w3.org/1999/xlink" x="0px" y="0px"
	 viewBox="0 0 19.66 29.2" style="enable-background:new 0 0 19.66 29.2;" xml:space="preserve">
<style type="text/css">
	.st0{fill:none;stroke:#39A2B8;stroke-linecap:round;stroke-linejoin:round;stroke-miterlimit:10;}
	.st1{fill:none;stroke:#006272;stroke-linecap:round;stroke-linejoin:round;stroke-miterlimit:10;}
	.st2{fill:none;stroke:#006272;stroke-width:1.5;stroke-linecap:round;stroke-linejoin:round;stroke-miterlimit:10;}
</style>
<g>
	<path class="st0" d="M0.5,28.7v-1.84c0-2.06,1.67-3.73,3.73-3.73h11.2c2.06,0,3.73,1.67,3.73,3.73v1.84"/>
	<polyline class="st0" points="5.12,23.13 9.83,28.27 14.54,23.13 	"/>
	<path class="st0" d="M6.07,13.33c0,0,1.64-0.65,3.76-0.65s3.76,0.65,3.76,0.65"/>
	<path class="st0" d="M13.58,17.19V18c0,2.07-1.68,3.76-3.76,3.76h0c-2.07,0-3.76-1.68-3.76-3.76v-0.81"/>
	<path class="st0" d="M6.07,14.54v-4.37c0-0.75,0.6-1.35,1.35-1.35h4.81c0.75,0,1.35,0.6,1.35,1.35v4.37"/>
	<g>
		<g>
			<g>
				<path class="st1" d="M4.87,15.87L4.87,15.87c0-0.74,0.6-1.34,1.34-1.34h1.52c0.74,0,1.34,0.6,1.34,1.34v0
					c0,0.74-0.6,1.34-1.34,1.34H6.2C5.47,17.2,4.87,16.6,4.87,15.87z"/>
			</g>
			<g>
				<path class="st1" d="M10.6,15.87L10.6,15.87c0-0.74,0.6-1.34,1.34-1.34h1.52c0.74,0,1.34,0.6,1.34,1.34v0
					c0,0.74-0.6,1.34-1.34,1.34h-1.52C11.19,17.2,10.6,16.6,10.6,15.87z"/>
			</g>
		</g>
	</g>
	<g>
		<path class="st2" d="M6.95,3.63c0-1.76,1.58-3.15,3.4-2.83c1.16,0.2,2.11,1.15,2.31,2.31c0.21,1.17-0.3,2.24-1.15,2.86
			c-1.01,0.73-1.68,1.82-1.68,3.06V9.3"/>
		<line class="st2" x1="9.83" y1="11.56" x2="9.83" y2="12.68"/>
	</g>
</g>
</svg>
