<?xml version="1.0" encoding="utf-8"?>
<!-- Generator: Adobe Illustrator 23.0.3, SVG Export Plug-In . SVG Version: 6.00 Build 0)  -->
<svg version="1.1" id="Layer_1" xmlns="http://www.w3.org/2000/svg" xmlns:xlink="http://www.w3.org/1999/xlink" x="0px" y="0px"
	 viewBox="0 0 20.29 28.34" style="enable-background:new 0 0 20.29 28.34;" xml:space="preserve">
<style type="text/css">
	.st0{fill:none;stroke:#006272;stroke-linecap:round;stroke-linejoin:round;stroke-miterlimit:10;}
	.st1{fill:none;stroke:#39A2B8;stroke-width:1.5;stroke-linecap:round;stroke-linejoin:round;stroke-miterlimit:10;}
</style>
<g>
	<path class="st0" d="M8,11.91C8.82,8.35,8.53,4.75,7.16,1.12"/>
	<path class="st0" d="M12.17,18.59c2.49,0.63,4.95,0.4,7.37-0.78"/>
	<path class="st0" d="M11.78,14.51c2.57-1.6,4.36-3.74,5.23-6.54"/>
	<path class="st0" d="M10.64,22.33c1.08,1.45,2.5,2.52,4.25,3.21"/>
	<path class="st0" d="M6.61,22.85c-0.33,1.54-0.14,3.08,0.55,4.62"/>
	<path class="st0" d="M3.87,20.46c-1.15,0.59-1.85,1.61-2.26,2.91"/>
	<path class="st0" d="M4.85,16.36c-0.43-0.43-0.97-0.79-1.61-1.06"/>
	<path class="st0" d="M7.16,16.09c0-0.49-0.1-1.02-0.29-1.59"/>
	<path class="st0" d="M7.91,17.91c0.74-0.09,1.26-0.6,1.55-1.55"/>
	<path class="st0" d="M3.58,18.61c-0.99-0.06-1.9,0.07-2.75,0.33"/>
	<path class="st1" d="M3.75,0.75c8.72,0,15.79,7.07,15.79,15.79c0,6.1-4.95,11.05-11.05,11.05c-4.27,0-7.74-3.46-7.74-7.74
		c0-2.99,2.42-5.42,5.42-5.42c2.09,0,3.79,1.7,3.79,3.79c0,1.47-1.19,2.65-2.65,2.65c-1.03,0-1.86-0.83-1.86-1.86
		c0-1.09,0.72-1.59,1.43-1.59s1.32,0.59,1.32,1.09"/>
</g>
</svg>
