<?xml version="1.0" encoding="utf-8"?>
<!-- Generator: Adobe Illustrator 23.0.3, SVG Export Plug-In . SVG Version: 6.00 Build 0)  -->
<svg version="1.1" id="Layer_1" xmlns="http://www.w3.org/2000/svg" xmlns:xlink="http://www.w3.org/1999/xlink" x="0px" y="0px"
	 viewBox="0 0 28.92 34.51" style="enable-background:new 0 0 28.92 34.51;" xml:space="preserve">
<style type="text/css">
	.st0{fill:none;stroke:#006272;stroke-linecap:round;stroke-linejoin:round;stroke-miterlimit:10;}
	.st1{fill:none;stroke:#39A2B8;stroke-width:1.5;stroke-linecap:round;stroke-linejoin:round;stroke-miterlimit:10;}
</style>
<g>
	<g>
		<g>
			<line class="st0" x1="10.65" y1="34.01" x2="19.49" y2="25.18"/>
			<line class="st0" x1="14.29" y1="10.07" x2="9.34" y2="15.02"/>
			<line class="st0" x1="13.33" y1="16.1" x2="15.64" y2="13.8"/>
			<line class="st0" x1="18.16" y1="16.35" x2="15.52" y2="18.99"/>
			<path class="st0" d="M25.29,11.76"/>
			<line class="st0" x1="16.95" y1="22.64" x2="21.3" y2="18.29"/>
			<path class="st0" d="M26.61,15.52"/>
			<path class="st0" d="M19.49,25.18l7.12-7.12c0.53-0.53,0.66-1.3,0.39-1.94"/>
			<path class="st0" d="M11.83,20.67c0.25-1.41-0.4-2.77-1.53-3.49c-0.72-0.47-1.14-1.28-0.99-2.12l0.91-5.24
				c0.17-0.98-0.48-1.91-1.46-2.08l0,0C7.78,7.57,6.85,8.23,6.68,9.2L4.9,19.46l-4.4,4.4"/>
			<path class="st0" d="M11.98,14.92c0.47,0.36,0.92,0.75,1.35,1.18c2.45,2.45,3.73,5.63,3.85,8.84"/>
		</g>
	</g>
	<g>
		<path class="st1" d="M26.4,8.36c0,0-1.14-1.13-1.9-1.9c-0.52-0.53-0.82-1.03-0.82-1.59c0-2.06-1.64-4.02-3.78-4.11
			c-1.55-0.07-2.92,0.76-3.63,2.01c-0.16,0.28-0.42,0.5-0.73,0.61l-2.1,0.76c-0.39,0.14-0.37,0.69,0.02,0.81l2.29,0.67v0
			c0,0.38-0.11,0.76-0.34,1.06c-1.68,2.25-1.5,5.44,0.54,7.48l2.45,2.45c2.27,2.27,5.96,2.24,8.19-0.08
			C28.8,14.25,28.63,10.59,26.4,8.36z"/>
	</g>
</g>
</svg>
