<?xml version="1.0" encoding="utf-8"?>
<!-- Generator: Adobe Illustrator 23.0.3, SVG Export Plug-In . SVG Version: 6.00 Build 0)  -->
<svg version="1.1" id="Layer_1" xmlns="http://www.w3.org/2000/svg" xmlns:xlink="http://www.w3.org/1999/xlink" x="0px" y="0px"
	 viewBox="0 0 83.86 60.82" style="enable-background:new 0 0 83.86 60.82;" xml:space="preserve">
<style type="text/css">
	.st0{fill:#006272;}
	.st1{fill:#00FFB8;}
	.st2{fill:#FF00B3;}
	.st3{fill:#39A2B8;}
</style>
<g>
	<g>
		<path class="st0" d="M83.08,20.31c-1.03-1.03-2.7-1.03-3.73,0l-5.07,5.07c-1.03,1.03-1.03,2.7,0,3.73c1.03,1.03,2.7,1.03,3.73,0
			l5.07-5.07C84.11,23.01,84.11,21.34,83.08,20.31z"/>
		<path class="st0" d="M6.27,37.12L1.2,42.2c-1.03,1.03-1.03,2.7,0,3.73c1.03,1.03,2.7,1.03,3.73,0L10,40.85
			c1.03-1.03,1.03-2.7,0-3.73C8.97,36.1,7.3,36.1,6.27,37.12z"/>
		<path class="st0" d="M48.31,7.73c-0.03,0-0.06,0-0.1,0L41.68,1.2c-1.03-1.03-2.7-1.03-3.73,0c-1.03,1.03-1.03,2.7,0,3.73
			l3.81,3.81c-6.44,2.03-11.6,6.98-13.93,13.29c-0.53-0.1-1.07-0.16-1.62-0.16c-4.83,0-8.77,3.93-8.77,8.77s3.93,8.77,8.77,8.77
			c0.86,0,1.69-0.13,2.47-0.36c1.97,4.06,5.17,7.42,9.11,9.59l-7.68,7.68c-1.03,1.03-1.03,2.7,0,3.73c1.03,1.03,2.7,1.03,3.73,0
			l9.31-9.31c1.65,0.4,3.38,0.62,5.16,0.62c12.03,0,21.81-9.78,21.81-21.81S60.34,7.73,48.31,7.73z M26.21,35.91
			c-2.91,0-5.27-2.36-5.27-5.27s2.36-5.27,5.27-5.27c0.23,0,0.46,0.04,0.68,0.07c-0.25,1.33-0.39,2.7-0.39,4.1
			c0,2.16,0.32,4.24,0.91,6.22C27.02,35.85,26.63,35.91,26.21,35.91z M48.31,36.35c-3.75,0-6.81-3.05-6.81-6.81
			c0-3.75,3.05-6.81,6.81-6.81s6.81,3.05,6.81,6.81C55.12,33.3,52.07,36.35,48.31,36.35z"/>
	</g>
</g>
<path class="st1" d="M82.65,19.88c1.03,1.03,1.03,2.7,0,3.73l-5.07,5.07c-1.03,1.03-2.7,1.03-3.73,0c-1.03-1.03-1.03-2.7,0-3.73
	l5.07-5.07C79.96,18.85,81.63,18.85,82.65,19.88z"/>
<path class="st1" d="M9.57,36.69c1.03,1.03,1.03,2.7,0,3.73L4.5,45.49c-1.03,1.03-2.7,1.03-3.73,0s-1.03-2.7,0-3.73l5.07-5.07
	C6.87,35.67,8.54,35.67,9.57,36.69z"/>
<path class="st1" d="M47.88,50.92c-12.03,0-21.81-9.78-21.81-21.81S35.86,7.3,47.88,7.3s21.81,9.78,21.81,21.81
	S59.91,50.92,47.88,50.92z M47.88,22.3c-3.75,0-6.81,3.05-6.81,6.81c0,3.75,3.05,6.81,6.81,6.81s6.81-3.05,6.81-6.81
	C54.69,25.36,51.64,22.3,47.88,22.3z"/>
<path class="st2" d="M52.17,15.41c-1.03,1.03-2.7,1.03-3.73,0L37.52,4.5c-1.03-1.03-1.03-2.7,0-3.73s2.7-1.03,3.73,0l10.92,10.92
	C53.2,12.72,53.2,14.38,52.17,15.41z"/>
<path class="st3" d="M44.33,44.97c1.03,1.03,1.03,2.7,0,3.73L33.41,59.61c-1.03,1.03-2.7,1.03-3.73,0s-1.03-2.7,0-3.73L40.6,44.97
	C41.63,43.94,43.3,43.94,44.33,44.97z"/>
<path class="st2" d="M25.78,38.98c-4.83,0-8.77-3.93-8.77-8.77s3.93-8.77,8.77-8.77s8.77,3.93,8.77,8.77S30.62,38.98,25.78,38.98z
	 M25.78,24.94c-2.91,0-5.27,2.36-5.27,5.27s2.36,5.27,5.27,5.27s5.27-2.36,5.27-5.27S28.69,24.94,25.78,24.94z"/>
</svg>
