<?xml version="1.0" encoding="utf-8"?>
<!-- Generator: Adobe Illustrator 23.0.3, SVG Export Plug-In . SVG Version: 6.00 Build 0)  -->
<svg version="1.1" id="Layer_1" xmlns="http://www.w3.org/2000/svg" xmlns:xlink="http://www.w3.org/1999/xlink" x="0px" y="0px"
	 viewBox="0 0 839.06 283.46" style="enable-background:new 0 0 839.06 283.46;" xml:space="preserve">
<style type="text/css">
	.st0{fill:#AC162C;}
	.st1{fill:#FFFFFF;}
	.st2{fill:none;}
</style>
<g>
	<g>
		<path id="XMLID_16_" class="st0" d="M817.8,286.3H20.55c-9.78,0-17.72-7.93-17.72-17.72V20.55c0-9.78,7.93-17.72,17.72-17.72
			H817.8c9.78,0,17.72,7.93,17.72,17.72v248.03C835.51,278.37,827.58,286.3,817.8,286.3z"/>
		<g>
			<g>
				<path class="st1" d="M158.97,110.11L158.97,110.11c-2.01,4.69-3.21,12.49-3.21,20.84c0,13.73,2.45,21.98,7.94,26.75
					c5.63,4.9,14.73,5.57,23.73,5.57c8.64,0,13.87-0.73,23.36-2.06l0.74-0.1l0.09-9.57l-0.46,0.08c-0.11,0.02-12.03,2.09-24.25,2.09
					c-8.25,0-13.72-1.46-16.26-4.31c-3.24-3.57-3.75-8.85-3.77-14.05c2.62,0.07,17.75,0.52,26.11,0.52c7.64,0,21.02-0.98,21.15-0.99
					l0.34-0.03l0.02-0.34c0-0.06,0.33-5.83,0.33-7.95c0-10.6-1.44-16.97-4.82-21.3c-4.76-5.84-14.87-6.63-24.13-6.63
					C174.46,98.65,163.29,100.04,158.97,110.11z M186.65,107.96c6.68,0,11.27,0.47,13.51,2.86c2.21,2.35,3.32,7.45,3.42,15.59
					c-9.46,0.4-27.48,0.37-36.51-0.57C167.76,111.39,168.75,107.96,186.65,107.96z"/>
				<g>
					<g>
						<path class="st1" d="M236.44,80.3c-4.08,3.96-5.99,10.17-5.99,19.52c0,10.36,2.64,16.45,8.56,19.75
							c5.41,3.03,13.27,3.42,22.37,3.85l3.25,0.17c8.71,0.44,14.2,0.8,17.21,2.72c2.71,1.73,3.67,4.81,3.67,11.76
							c0,6.06-1.23,9.42-4.24,11.59c-3.01,2.17-8.16,3.14-16.7,3.14c-13.14,0-32.26-2.4-32.26-2.4l-0.06,10.71
							c0,0,16.37,2.16,32.46,2.16c13.34,0,21.11-1.81,25.99-6.04c4.86-4.21,6.84-10.41,6.84-21.36c0-10.31-2.72-16.71-8.59-20.15
							c-5.28-3.1-12.54-3.51-20.96-3.98l-8.21-0.52l-1.62-0.1c-11.51-0.72-15.81-0.98-15.81-11.19c0-5.81,0.56-9.67,3.4-12.2
							c2.97-2.65,8.58-3.83,18.19-3.83c13.24,0,29.3,2.02,29.3,2.02l0.01-10.18l-0.34-0.04c-0.18-0.02-17.82-2.13-29.36-2.13
							C248.83,73.58,241.48,75.4,236.44,80.3z M236.44,80.3L236.44,80.3L236.44,80.3z"/>
					</g>
				</g>
				<path class="st1" d="M317.7,105.04c-4.42,5.11-5.31,13.71-5.31,25.92c0,12.22,0.89,20.82,5.31,25.93
					c4.58,5.3,12.67,6.39,23.39,6.39c10.72,0,18.8-1.09,23.38-6.39c4.42-5.11,5.3-13.71,5.3-25.93c0-12.21-0.89-20.8-5.3-25.92
					c-4.58-5.3-12.66-6.39-23.38-6.39C330.37,98.65,322.28,99.74,317.7,105.04z M326.46,150.51L326.46,150.51
					c-2.27-2.99-2.68-8.93-2.68-19.55c0-10.6,0.41-16.54,2.68-19.54c2.21-2.93,6.66-3.46,14.64-3.46c7.97,0,12.42,0.53,14.64,3.46
					c2.26,3,2.67,8.93,2.67,19.54c0,10.61-0.41,16.56-2.67,19.55c-2.22,2.93-6.67,3.46-14.64,3.46
					C333.12,153.97,328.67,153.43,326.46,150.51z"/>
				<g>
					<g>
						<path class="st1" d="M429.47,99.42c0,0-0.03,51.7-0.03,52.28c-2.3,0.59-9.03,2.13-16.03,2.13c-13.25,0-15.25-2.05-15.25-15.64
							V99.42h-10.98v40.33c0,9.73,1.43,15.12,4.97,18.6c3.54,3.5,9.03,4.92,18.93,4.92c3.03,0,7.34-0.58,9.17-0.82l0.73-0.09
							c1.05-0.13,2.23-0.57,4.17-1.39c1.99-0.85,3.16-1.62,3.2-1.64c0.55-0.38,1.02-0.69,1.47-0.69c0.4,0,0.52,0,0.67,0.87
							l0.02-0.01c0,0.08,0.43,2.88,0.43,2.88h9.52l-0.04-62.95H429.47z"/>
					</g>
				</g>
				<g>
					<g>
						<path class="st1" d="M481.48,99.31l-1.25,0.12l0,0c-1.39,0.12-4.85,1.8-5.55,2.2c-0.94,0.54-3,1.54-3.48,1.54
							c-0.4,0-0.53,0-0.67-0.88c0,0.01-0.44-2.87-0.44-2.87h-9.35v62.95h10.98c0,0,0-51.75,0-52.36c2.52-0.53,9.88-1.93,16.93-1.93
							c7.3,0,10.73,0.73,12.66,2.7c1.9,1.95,2.59,5.42,2.59,12.81v38.91h10.99v-40.46c0-9.61-1.48-15.15-4.96-18.54
							c-3.46-3.4-9.13-4.85-18.95-4.85C488.12,98.65,483.82,99.08,481.48,99.31z"/>
					</g>
				</g>
				<path class="st1" d="M576.28,73.45c0,0,0.05,26.06,0.06,26.96c-2.41-0.43-10.44-1.76-19.26-1.76c-10.19,0-17.05,3.13-20.97,9.53
					c-3.85,6.28-4.36,15.05-4.36,22.77c0,7.86,0.51,16.73,4.27,23.01c3.75,6.26,10.31,9.31,20.02,9.31c4.8,0,8.05-0.48,9.99-0.76
					l1.22-0.17c1.45-0.14,4.76-1.89,4.97-1.99c0.49-0.2,1.09-0.49,1.69-0.79c0.76-0.38,1.9-0.93,2.17-0.94
					c0.58,0,0.67,0.08,0.8,0.87l0.44,2.87h9.96l0.04-88.93H576.28z M546.26,149.48L546.26,149.48c-2.27-3.11-3.15-8.3-3.15-18.53
					s0.89-15.44,3.19-18.58c2.26-3.08,6.05-4.29,13.48-4.29c5.53,0,12.27,0.72,16.54,1.35c0,0.66,0,41.44,0,42.01
					c-2.42,0.62-9.51,2.28-16.54,2.28C552.38,153.72,548.47,152.49,546.26,149.48z"/>
				<path class="st1" d="M129.5,85.65c0,0,0.01,0,0.01,0.01l-0.02-0.03C129.5,85.64,129.5,85.64,129.5,85.65z M73.96,73.45v88.93
					h11.62c0,0,0.02-38.8,0.02-39.55c0.72,0,18.1-0.01,18.49-0.01c0.23,0.33,26.58,39.55,26.58,39.55h14.25l-26.48-39.26
					c0,0-0.13-0.28,0.24-0.28c1.31,0,5.52-0.25,11.02-2.19c3.12-1.11,5.33-2.86,7.22-4.87c3.74-4.15,5.55-9.83,5.55-17.38
					c0-9.28-1.98-15.41-6.22-19.28c-4.24-3.86-10.93-5.66-21.05-5.66H73.96z M112.35,83.79c8.29,0,13.04,1.1,15.39,3.56l0.02,0.03
					c2.6,2.6,2.82,6.46,2.82,10.89c0,4.34-0.22,8.15-2.82,10.75c-2.37,2.49-7.12,3.6-15.41,3.6c0,0-26,0-26.75,0
					c0-0.75,0-28.08,0-28.82C86.35,83.79,112.35,83.79,112.35,83.79z"/>
			</g>
			<g>
				<path id="XMLID_15_" class="st1" d="M81.11,215.38h-5.95c-0.8,0-1.45-0.65-1.45-1.45v-14.8c0-0.8,0.65-1.45,1.45-1.45h5.95
					c0.8,0,1.45,0.65,1.45,1.45v14.8C82.56,214.73,81.91,215.38,81.11,215.38z"/>
				<path id="XMLID_14_" class="st1" d="M110.93,215.38h-6.92c-0.84,0-1.52-0.68-1.52-1.52v-14.66c0-0.84,0.68-1.52,1.52-1.52h6.92
					c0.84,0,1.52,0.68,1.52,1.52v14.66C112.46,214.7,111.77,215.38,110.93,215.38z"/>
				<path id="XMLID_13_" class="st1" d="M140.76,215.38h-7.89c-0.88,0-1.59-0.71-1.59-1.59v-14.53c0-0.88,0.71-1.59,1.59-1.59h7.89
					c0.88,0,1.59,0.71,1.59,1.59v14.53C142.35,214.67,141.64,215.38,140.76,215.38z"/>
				<path id="XMLID_12_" class="st1" d="M170.59,215.38h-8.86c-0.92,0-1.66-0.74-1.66-1.66v-14.39c0-0.92,0.74-1.66,1.66-1.66h8.86
					c0.92,0,1.66,0.74,1.66,1.66v14.39C172.25,214.64,171.51,215.38,170.59,215.38z"/>
				<path id="XMLID_11_" class="st1" d="M200.42,215.38h-9.83c-0.96,0-1.73-0.77-1.73-1.73V199.4c0-0.96,0.77-1.73,1.73-1.73h9.83
					c0.96,0,1.73,0.77,1.73,1.73v14.25C202.15,214.61,201.37,215.38,200.42,215.38z"/>
				<path id="XMLID_10_" class="st1" d="M230.24,215.38h-10.8c-0.99,0-1.8-0.81-1.8-1.8v-14.11c0-0.99,0.81-1.8,1.8-1.8h10.8
					c0.99,0,1.8,0.81,1.8,1.8v14.11C232.04,214.57,231.24,215.38,230.24,215.38z"/>
				<path id="XMLID_9_" class="st1" d="M260.07,215.38h-11.76c-1.03,0-1.87-0.84-1.87-1.87v-13.97c0-1.03,0.84-1.87,1.87-1.87h11.76
					c1.03,0,1.87,0.84,1.87,1.87v13.97C261.94,214.54,261.1,215.38,260.07,215.38z"/>
				<path id="XMLID_8_" class="st1" d="M289.9,215.38h-12.73c-1.07,0-1.94-0.87-1.94-1.94v-13.83c0-1.07,0.87-1.94,1.94-1.94h12.73
					c1.07,0,1.94,0.87,1.94,1.94v13.83C291.84,214.51,290.97,215.38,289.9,215.38z"/>
				<path id="XMLID_7_" class="st1" d="M319.73,215.38h-13.7c-1.11,0-2.01-0.9-2.01-2.01v-13.7c0-1.11,0.9-2.01,2.01-2.01h13.7
					c1.11,0,2.01,0.9,2.01,2.01v13.7C321.73,214.48,320.83,215.38,319.73,215.38z"/>
				<path id="XMLID_6_" class="st1" d="M349.55,215.38h-14.67c-1.15,0-2.08-0.93-2.08-2.08v-13.56c0-1.15,0.93-2.08,2.08-2.08h14.67
					c1.15,0,2.08,0.93,2.08,2.08v13.56C351.63,214.45,350.7,215.38,349.55,215.38z"/>
				<path id="XMLID_5_" class="st1" d="M379.38,215.38h-15.57c-1.18,0-2.15-0.96-2.15-2.15v-13.42c0-1.18,0.96-2.15,2.15-2.15h15.57
					c1.18,0,2.15,0.96,2.15,2.15v13.42C381.53,214.42,380.57,215.38,379.38,215.38z"/>
				<path id="XMLID_4_" class="st1" d="M689.86,215.38H395.61c-2.17,0-3.92-1.76-3.92-3.92v-9.87c0-2.17,1.76-3.92,3.92-3.92h294.25
					c2.17,0,3.92,1.76,3.92,3.92v9.87C693.78,213.62,692.02,215.38,689.86,215.38z"/>
			</g>
			<g>
				<g id="XMLID_2_">
					<path id="XMLID_3_" class="st1" d="M759.7,135.11c-1.33,0-2.64-0.52-3.62-1.5l-40.8-40.8c-0.6-0.6-1.64-0.18-1.64,0.68v36.33
						c0,2.82-2.2,5.23-5.02,5.29c-2.87,0.05-5.21-2.26-5.21-5.12V78.97c0-1.79,0.86-3.52,2.38-4.48c2.06-1.3,4.69-0.96,6.36,0.71
						l40.8,40.8c0.6,0.6,1.64,0.18,1.64-0.68V78.99c0-2.82,2.2-5.23,5.02-5.29c2.87-0.05,5.21,2.26,5.21,5.12v51.02
						c0,1.85-0.91,3.61-2.5,4.56C761.49,134.88,760.59,135.11,759.7,135.11z"/>
				</g>
				<path id="XMLID_1_" class="st1" d="M688.05,99.29h-15.15c-2.83,0-5.26,2.21-5.3,5.04c-0.04,2.86,2.26,5.2,5.12,5.2l8.96,0l0,0
					c0.71,0,1.28,0.57,1.28,1.28v0l0,12.79l0,0c0,0.71-0.57,1.28-1.28,1.28l0,0h-18.8c-11.91,0-21.5-9.74-20.83-21.63
					c0.6-10.75,9.54-19.31,20.44-19.31l25.4,0c2.83,0,5.26-2.21,5.3-5.04c0.04-2.86-2.26-5.2-5.12-5.2h-25.12
					c-16.47,0-30.37,12.79-31.13,29.24c-0.82,17.59,13.25,32.17,30.67,32.17h25.57c2.83,0,5.13-2.3,5.13-5.13v-25.56
					C693.18,101.59,690.88,99.29,688.05,99.29z"/>
			</g>
		</g>
	</g>
	<rect x="-68.03" y="-68.03" class="st2" width="974.41" height="425.2"/>
</g>
</svg>
