<?xml version="1.0" encoding="utf-8"?>
<!-- Generator: Adobe Illustrator 23.0.3, SVG Export Plug-In . SVG Version: 6.00 Build 0)  -->
<svg version="1.1" id="Layer_1" xmlns="http://www.w3.org/2000/svg" xmlns:xlink="http://www.w3.org/1999/xlink" x="0px" y="0px"
	 viewBox="0 0 19.96 22.77" style="enable-background:new 0 0 19.96 22.77;" xml:space="preserve">
<style type="text/css">
	.st0{fill:none;stroke:#FFFFFF;stroke-linecap:round;stroke-linejoin:round;stroke-miterlimit:10;}
	.st1{fill:none;stroke:#FFFFFF;stroke-linecap:round;stroke-linejoin:round;}
	.st2{fill:none;stroke:#FFFFFF;stroke-linecap:round;stroke-linejoin:round;stroke-dasharray:2.2458,3.3688;}
	.st3{fill:none;stroke:#006272;stroke-linecap:round;stroke-linejoin:round;stroke-miterlimit:10;}
</style>
<g>
	<g>
		<path class="st0" d="M0.5,10.52L0.5,10.52C0.49,9.54,0.96,8.62,1.76,8.05l6.81-4.88c0.8-0.57,1.86-0.58,2.67-0.02l6.87,4.8
			c0.8,0.56,1.28,1.47,1.29,2.45v0"/>
		<g>
			<g>
				<line class="st1" x1="17.1" y1="10.41" x2="16.1" y2="10.42"/>
				<line class="st2" x1="12.73" y1="10.44" x2="3.18" y2="10.5"/>
				<line class="st1" x1="1.5" y1="10.51" x2="0.5" y2="10.52"/>
			</g>
		</g>
		<path class="st3" d="M4.91,5.54c-0.02-3.12,2.82-5.59,6.06-4.94c1.9,0.38,3.44,1.91,3.84,3.8c0.49,2.27-0.57,4.36-2.32,5.41
			c-1.55,0.93-2.53,2.58-2.52,4.39l0,0.55"/>
		<path class="st0" d="M0.51,12.54L0.51,12.54c0.93-0.01,1.84,0.29,2.6,0.83l5.84,4.23c0.62,0.45,1.46,0.44,2.07-0.02l5.7-4.28
			c0.75-0.56,1.66-0.87,2.6-0.88l0.07,0"/>
		<polyline class="st0" points="0.5,10.52 0.57,22.27 19.46,22.15 19.39,10.4 		"/>
	</g>
</g>
</svg>
