<?xml version="1.0" encoding="utf-8"?>
<!-- Generator: Adobe Illustrator 23.0.3, SVG Export Plug-In . SVG Version: 6.00 Build 0)  -->
<svg version="1.1" id="Layer_1" xmlns="http://www.w3.org/2000/svg" xmlns:xlink="http://www.w3.org/1999/xlink" x="0px" y="0px"
	 viewBox="0 0 12.88 17.25" style="enable-background:new 0 0 12.88 17.25;" xml:space="preserve">
<style type="text/css">
	.st0{fill:none;stroke:#39a2b8;stroke-linecap:round;stroke-linejoin:round;stroke-miterlimit:10;}
</style>
<g>
	<path class="st0" d="M0.5,16.75v-3.5c0-1.31,1.06-2.38,2.38-2.38H10c1.31,0,2.38,1.06,2.38,2.38v3.5"/>
	<polyline class="st0" points="3.44,10.88 6.44,16.07 9.44,10.88 	"/>
	<g>
		<path class="st0" d="M3.28,5.63L3.28,5.63c0-0.47,0.38-0.85,0.85-0.85H5.1c0.47,0,0.85,0.38,0.85,0.85v0
			c0,0.47-0.38,0.85-0.85,0.85H4.13C3.66,6.48,3.28,6.1,3.28,5.63z"/>
		<path class="st0" d="M6.92,5.63L6.92,5.63c0-0.47,0.38-0.85,0.85-0.85h0.97c0.47,0,0.85,0.38,0.85,0.85v0
			c0,0.47-0.38,0.85-0.85,0.85H7.78C7.31,6.48,6.92,6.1,6.92,5.63z"/>
	</g>
	<path class="st0" d="M4.05,3.46c0,0,1.04-0.42,2.39-0.42s2.39,0.42,2.39,0.42"/>
	<path class="st0" d="M8.83,6.47v0.52c0,1.32-1.07,2.39-2.39,2.39h0c-1.32,0-2.39-1.07-2.39-2.39V6.47"/>
	<polyline class="st0" points="4.05,4.78 4.05,0.5 8.83,0.5 8.83,4.78 	"/>
</g>
</svg>
