<?xml version="1.0" encoding="utf-8"?>
<!-- Generator: Adobe Illustrator 23.0.3, SVG Export Plug-In . SVG Version: 6.00 Build 0)  -->
<svg version="1.1" id="Layer_1" xmlns="http://www.w3.org/2000/svg" xmlns:xlink="http://www.w3.org/1999/xlink" x="0px" y="0px"
	 viewBox="0 0 49.35 60.26" style="enable-background:new 0 0 49.35 60.26;" xml:space="preserve">
<style type="text/css">
	.st0{fill:none;stroke:#006272;stroke-width:1.6;stroke-linecap:round;stroke-linejoin:round;stroke-miterlimit:10;}
	.st1{fill:none;stroke:#39A2B8;stroke-width:1.6;stroke-linecap:round;stroke-linejoin:round;}
	.st2{fill:none;stroke:#39A2B8;stroke-width:1.6;stroke-linecap:round;stroke-linejoin:round;stroke-dasharray:0,1.9902;}
	.st3{fill:none;stroke:#39A2B8;stroke-width:1.6;stroke-linecap:round;stroke-linejoin:round;stroke-miterlimit:10;}
</style>
<g>
	<g>
		<circle class="st0" cx="30.09" cy="30.13" r="18.46"/>
		<g>
			<g>
				<line class="st1" x1="16.69" y1="11.66" x2="16.69" y2="11.66"/>
				<path class="st2" d="M15.14,12.9c-4.81,4.18-7.86,10.35-7.86,17.23c0,8.94,5.14,16.67,12.62,20.42"/>
				<line class="st1" x1="20.8" y1="50.97" x2="20.8" y2="50.97"/>
			</g>
		</g>
		<path class="st3" d="M43.62,30.39h-3.99c-0.3,0-0.58,0.16-0.73,0.41l-2.18,3.66c-0.39,0.66-1.38,0.5-1.56-0.24l-2.15-9.15
			c-0.21-0.89-1.47-0.87-1.66,0.02l-1.87,9.01c-0.19,0.91-1.49,0.9-1.67-0.01L25.73,23.3c-0.17-0.86-1.36-0.94-1.64-0.11l-2.28,6.74
			c-0.12,0.34-0.44,0.58-0.8,0.58h-4.45"/>
	</g>
	<g>
		<path class="st0" d="M24.95,0.8v2.7c0,1.3-1.06,2.36-2.36,2.36h-9.78c-1.3,0-2.36-1.06-2.36-2.36V0.8"/>
		<path class="st0" d="M34.61,48.03v5.91c0,3.05-2.47,5.52-5.52,5.52H6.32c-3.05,0-5.52-2.47-5.52-5.52V6.32
			c0-3.05,2.47-5.52,5.52-5.52h22.77c3.05,0,5.52,2.47,5.52,5.52v5.91"/>
	</g>
	<polyline class="st3" points="13.94,11.35 16.69,11.66 16.37,14.48 	"/>
	<polyline class="st3" points="18.15,51.77 20.8,50.97 19.98,48.26 	"/>
</g>
</svg>
