<?xml version="1.0" encoding="utf-8"?>
<!-- Generator: Adobe Illustrator 23.0.3, SVG Export Plug-In . SVG Version: 6.00 Build 0)  -->
<svg version="1.1" id="Layer_1" xmlns="http://www.w3.org/2000/svg" xmlns:xlink="http://www.w3.org/1999/xlink" x="0px" y="0px"
	 viewBox="0 0 28.9 35.82" style="enable-background:new 0 0 28.9 35.82;" xml:space="preserve">
<style type="text/css">
	.st0{fill:#39A2B8;}
	.st1{fill:#006272;}
	.st2{fill:#B2A8A2;}
	.st3{fill:#FFFFFF;}
</style>
<g>
	<path class="st0" d="M2.86,32.96c-3.82-3.82-3.82-10.01,0-13.83l9.34-9.34c3.82-3.82,10.01-3.82,13.83,0s3.82,10.01,0,13.83
		l-9.34,9.34C12.87,36.77,6.68,36.77,2.86,32.96z"/>
	<path class="st1" d="M26.03,23.61c-4.55,4.55-9.42,5.45-16.64,1.21c-2.12-1.24-4.7-3.07-7.26-4.88c0.77-0.77,3.15-3.25,3.15-3.25
		L26.03,23.61z"/>
	<path class="st2" d="M5.28,2.86c-3.82,3.82-3.82,10.01,0,13.83l6.92,6.92c3.82,3.82,10.01,3.82,13.83,0s3.82-10.01,0-13.83
		l-6.92-6.92C15.29-0.95,9.1-0.95,5.28,2.86z"/>
	<polygon class="st3" points="25.02,15.29 14.45,9.19 14.45,21.39 	"/>
</g>
</svg>
