<?xml version="1.0" encoding="utf-8"?>
<!-- Generator: Adobe Illustrator 23.0.3, SVG Export Plug-In . SVG Version: 6.00 Build 0)  -->
<svg version="1.1" id="Layer_1" xmlns="http://www.w3.org/2000/svg" xmlns:xlink="http://www.w3.org/1999/xlink" x="0px" y="0px"
	 viewBox="0 0 59.09 4.54" style="enable-background:new 0 0 59.09 4.54;" xml:space="preserve">
<style type="text/css">
	.st0{fill:none;stroke:#B2A8A2;stroke-linecap:round;stroke-linejoin:round;stroke-miterlimit:10;}
</style>
<path class="st0" d="M0.5,2.37h5.4c0.57,0,1.14-0.1,1.67-0.28l0.13-0.05c1.14-0.4,2.38-0.38,3.51,0.06l4.14,1.6
	c1.45,0.56,3.07,0.43,4.4-0.36L23.4,1.2c1.5-0.88,3.35-0.93,4.9-0.13l3.48,1.8c1.39,0.72,3.03,0.76,4.44,0.1l4.04-1.85
	c1.21-0.55,2.58-0.61,3.83-0.16l4.57,1.64c1.07,0.38,2.24,0.4,3.32,0.04v0c0.52-0.17,1.06-0.26,1.61-0.26h5"/>
</svg>
