<?xml version="1.0" encoding="utf-8"?>
<!-- Generator: Adobe Illustrator 23.0.3, SVG Export Plug-In . SVG Version: 6.00 Build 0)  -->
<svg version="1.1" id="Layer_1" xmlns="http://www.w3.org/2000/svg" xmlns:xlink="http://www.w3.org/1999/xlink" x="0px" y="0px"
	 viewBox="0 0 59.09 11.17" style="enable-background:new 0 0 59.09 11.17;" xml:space="preserve">
<style type="text/css">
	.st0{fill:none;stroke:#B2A8A2;stroke-linecap:round;stroke-linejoin:round;stroke-miterlimit:10;}
</style>
<path class="st0" d="M0.5,5.88h5.25c0.65,0,1.27-0.26,1.72-0.72l0.18-0.19c0.98-1,2.6-0.96,3.53,0.09l4.24,4.79
	c1.09,1.23,3.07,1.04,3.89-0.38l4.53-7.77c0.9-1.54,3.11-1.61,4.1-0.12l4.13,6.22c0.92,1.39,2.95,1.45,3.95,0.11l4.41-5.9
	c0.89-1.2,2.65-1.3,3.68-0.22l4.51,4.72c0.93,0.97,2.47,1,3.43,0.06v0c0.45-0.44,1.06-0.69,1.69-0.69h4.84"/>
</svg>
