<?xml version="1.0" encoding="utf-8"?>
<!-- Generator: Adobe Illustrator 23.0.3, SVG Export Plug-In . SVG Version: 6.00 Build 0)  -->
<svg version="1.1" id="Layer_1" xmlns="http://www.w3.org/2000/svg" xmlns:xlink="http://www.w3.org/1999/xlink" x="0px" y="0px"
	 viewBox="0 0 59.09 7.09" style="enable-background:new 0 0 59.09 7.09;" xml:space="preserve">
<style type="text/css">
	.st0{fill:none;stroke:#B2A8A2;stroke-linecap:round;stroke-linejoin:round;stroke-miterlimit:10;}
</style>
<path class="st0" d="M0.5,3.72h5.35c0.59,0,1.18-0.16,1.69-0.47l0.15-0.09c1.09-0.65,2.45-0.62,3.5,0.08l4.2,2.8
	c1.3,0.87,3.04,0.69,4.14-0.42l4.09-4.14c1.22-1.24,3.2-1.3,4.5-0.15l3.8,3.38c1.19,1.06,2.96,1.11,4.2,0.12l4.22-3.34
	c1.08-0.85,2.58-0.94,3.75-0.22l4.56,2.82c1.02,0.63,2.31,0.65,3.35,0.05v0c0.5-0.29,1.06-0.44,1.63-0.44h4.95"/>
</svg>
