<svg version="1.1" id="icon" xmlns="http://www.w3.org/2000/svg" x="0" y="0" viewBox="0 0 29.11 28.88" xml:space="preserve"><style>.st0{stroke-miterlimit:10}</style><path class="st0" d="M28.54 13.25a.503.503 0 0 0-.36-.24l-18.3-2.69a.507.507 0 0 0-.57.42c-.04.27.15.53.42.57l17.7 2.85-3 8.34H11.38L6.15 8.82a.501.501 0 0 0-.47-.32H1.5c-.28 0-1-.28-1 0V10c0 .28.22.5.5.5s.5-.22.5-.5v-.5h3.84l5.22 13.68c.07.19.26.32.47.32h13.75c.21 0 .4-.38.47-.58l3.33-9.12c.05-.14.04-.42-.04-.55z"/><path d="M14.29 23.57c-1.39 0-2.53 1.13-2.53 2.53 0 1.39 1.13 2.53 2.53 2.53 1.39 0 2.53-1.13 2.53-2.53s-1.13-2.53-2.53-2.53zm0 4.06a1.53 1.53 0 1 1 0-3.06 1.53 1.53 0 0 1 0 3.06zm7.23-4.06c-1.39 0-2.53 1.13-2.53 2.53 0 1.39 1.13 2.53 2.53 2.53 1.39 0 2.53-1.13 2.53-2.53a2.54 2.54 0 0 0-2.53-2.53zm0 4.06a1.53 1.53 0 1 1 1.53-1.53c-.01.84-.69 1.53-1.53 1.53z" stroke-width=".5" stroke-miterlimit="10"/><path class="st0" d="M21 5.5h2.5V8c0 .28.22.5.5.5s.5-.22.5-.5V5.5H28c.28 0 .5-.22.5-.5s-.22-.5-.5-.5h-3.5V1c0-.28-.22-.5-.5-.5s-.5.22-.5.5v3.5H21c-.28 0-.5.22-.5.5s.22.5.5.5z"/></svg>