<svg xmlns="http://www.w3.org/2000/svg" viewBox="0 0 30.25 24.08"><path d="M21.97.3c-2.81 0-5.4 1.47-6.84 3.82C13.68 1.75 11.09.26 8.28.26 3.85.26.25 3.91.25 8.41c0 2.02.76 3.31 1.91 5.26l.01.01c.02.06.06.12.1.17l12.5 9.83c.1.1.23.16.37.16.14 0 .28-.06.37-.17l12.46-9.83c.04-.05.07-.1.1-.16C29.23 11.71 30 10.42 30 8.39 30 3.93 26.4.3 21.97.3zm5.2 12.94l-12.03 9.35-12.06-9.35-.05-.09c-1.14-1.94-1.78-3.01-1.78-4.75 0-3.94 3.15-7.15 7.03-7.15a7.04 7.04 0 0 1 6.39 4.13c.08.18.26.29.46.29s.37-.11.45-.29c1.13-2.48 3.64-4.09 6.39-4.09C25.85 1.3 29 4.48 29 8.39c0 1.75-.63 2.82-1.83 4.85z" stroke-width=".5" stroke-miterlimit="10"/></svg>