<svg version="1.1" id="icon" xmlns="http://www.w3.org/2000/svg" x="0" y="0" viewBox="0 0 30.5 30.5" xml:space="preserve"><style>.st0{fill:#ff7013;stroke:#ff7013;stroke-width:.5;stroke-miterlimit:10}</style><path class="st0" d="M7.88 30.25H2.63c-1.31 0-2.38-1.07-2.38-2.38V2.63C.25 1.32 1.32.25 2.63.25h5.25c1.31 0 2.38 1.07 2.38 2.38v25.25a2.397 2.397 0 0 1-2.38 2.37zm-5.25-29c-.76 0-1.38.62-1.38 1.38v25.25c0 .76.62 1.38 1.38 1.38h5.25c.76 0 1.38-.62 1.38-1.38V2.63c0-.76-.62-1.38-1.38-1.38H2.63z"/><path class="st0" d="M29.75 29.25h-20c-.28 0-.5-.22-.5-.5v-27c0-.28.22-.5.5-.5h20c.28 0 .5.22.5.5v27c0 .28-.22.5-.5.5zm-19.5-1h19v-26h-19v26z"/><path class="st0" d="M25.75 11.25h-12c-.28 0-.5-.22-.5-.5v-5c0-.28.22-.5.5-.5h12c.28 0 .5.22.5.5v5c0 .28-.22.5-.5.5zm-11.5-1h11v-4h-11v4zm3.5 14.5c-.28 0-.5-.22-.5-.5v-11c0-.28.22-.5.5-.5s.5.22.5.5v11c0 .28-.22.5-.5.5zm4 0c-.28 0-.5-.22-.5-.5v-11c0-.28.22-.5.5-.5s.5.22.5.5v11c0 .28-.22.5-.5.5z"/><path class="st0" d="M25.25 17.25h-11c-.28 0-.5-.22-.5-.5s.22-.5.5-.5h11c.28 0 .5.22.5.5s-.22.5-.5.5zm0 4h-11c-.28 0-.5-.22-.5-.5s.22-.5.5-.5h11c.28 0 .5.22.5.5s-.22.5-.5.5z"/><path class="st0" d="M25.75 25.25h-12c-.28 0-.5-.22-.5-.5v-12c0-.28.22-.5.5-.5h12c.28 0 .5.22.5.5v12c0 .28-.22.5-.5.5zm-11.5-1h11v-11h-11v11z"/></svg>