<svg xmlns="http://www.w3.org/2000/svg" viewBox="0 0 28.58 28.7"><path d="M27.66 25.02l-7.98-8.01c2.84-4.14 2.43-9.85-1.23-13.53-2-2.01-4.66-3.11-7.49-3.11S5.47 1.48 3.47 3.49c-4.13 4.14-4.13 10.88 0 15.02 2 2.01 4.66 3.11 7.49 3.11 2.16 0 4.23-.65 5.97-1.86l7.97 8.01c.35.35.82.55 1.33.55s.97-.19 1.33-.55l.1-.1c.73-.72.73-1.92 0-2.65zM4.18 17.81C.44 14.06.44 7.95 4.18 4.2c1.81-1.82 4.22-2.82 6.78-2.82s4.97 1 6.78 2.82c3.71 3.72 3.73 9.76.08 13.53l-.17.17a9.508 9.508 0 0 1-6.69 2.73 9.5 9.5 0 0 1-6.78-2.82zm22.77 9.16l-.1.1a.9.9 0 0 1-1.24 0l-7.85-7.88.59-.6c.03-.03.06-.05.09-.08s.05-.06.08-.09l.58-.58 7.85 7.88c.34.35.34.91 0 1.25z" stroke-width=".75" stroke-miterlimit="10"/></svg>