<svg version="1.1" id="icon" xmlns="http://www.w3.org/2000/svg" x="0" y="0" viewBox="0 0 29.33 26.5" xml:space="preserve"><style>.st0{stroke:#000;stroke-width:.5;stroke-miterlimit:10}</style><path class="st0" d="M2.84 25.09c-1.04 0-1.78-.29-2.21-.88-2-2.7 4.16-9.51 10.96-14.55C18.4 4.63 26.7.73 28.7 3.42c.48.65.51 1.57.07 2.73-.1.26-.38.39-.64.29a.492.492 0 0 1-.29-.64c.21-.56.39-1.33.06-1.78-1.17-1.58-7.91.68-15.71 6.46C4.39 16.25.26 22.04 1.43 23.62c.37.5 1.29.51 1.99.44.27-.02.52.17.55.44.03.27-.17.52-.44.55-.24.03-.47.04-.69.04z"/><path class="st0" d="M14.83 26.25c-7.17 0-13-5.83-13-13s5.83-13 13-13 13 5.83 13 13-5.83 13-13 13zm0-25c-6.62 0-12 5.38-12 12s5.38 12 12 12 12-5.38 12-12-5.39-12-12-12z"/><path class="st0" d="M26.96 14h-24c-.28 0-.5-.22-.5-.5s.22-.5.5-.5h24c.28 0 .5.22.5.5 0 .27-.22.5-.5.5zm-2 7h-20c-.28 0-.5-.22-.5-.5s.22-.5.5-.5h20c.28 0 .5.22.5.5 0 .27-.22.5-.5.5zm-1-15h-19c-.28 0-.5-.22-.5-.5s.23-.5.5-.5h19c.28 0 .5.22.5.5s-.22.5-.5.5z"/><path class="st0" d="M14.83 26.18c-.16 0-.32-.08-.42-.22a.498.498 0 0 1 .14-.69c3.72-2.48 6.03-7.08 6.03-12.01s-2.31-9.54-6.03-12.01a.498.498 0 0 1 .55-.83c3.99 2.66 6.47 7.58 6.47 12.84S19.1 23.44 15.11 26.1a.5.5 0 0 1-.28.08z"/><path class="st0" d="M14.83 26.18c-.1 0-.19-.03-.28-.08-3.99-2.66-6.47-7.58-6.47-12.84S10.56 3.08 14.55.42a.498.498 0 0 1 .55.83c-3.72 2.47-6.03 7.08-6.03 12.01s2.31 9.54 6.03 12.01c.23.15.29.46.14.69-.09.15-.25.22-.41.22z"/></svg>