<svg version="1.1" id="icon" xmlns="http://www.w3.org/2000/svg" x="0" y="0" viewBox="0 0 27.84 28.89" xml:space="preserve"><style>.st0{stroke:#000;stroke-width:.5;stroke-miterlimit:10}</style><path class="st0" d="M13.81 21.77c-5.26 0-10-6.53-10-8V8.89c0-.28.22-.5.5-.5s.5.22.5.5v4.88c0 .99 4.31 7 9 7s9-6.01 9-7V8.89c0-.28.22-.5.5-.5s.5.22.5.5v4.88c0 1.47-4.74 8-10 8z"/><path class="st0" d="M27.09 28.64c-.28 0-.5-.22-.5-.5 0-4.63-2.28-8.25-5.18-8.25h-2.6c-.28 0-.5-.22-.5-.5s.22-.5.5-.5h2.6c3.52 0 6.18 3.98 6.18 9.25 0 .28-.22.5-.5.5zm-26.34 0c-.28 0-.5-.22-.5-.5 0-5.27 2.56-9.25 5.96-9.25H8.8c.28 0 .5.22.5.5s-.22.5-.5.5H6.21c-2.78 0-4.96 3.62-4.96 8.25 0 .28-.22.5-.5.5zm5.79-16.87a.47.47 0 0 1-.35-.15C3.12 8.55 3.96 6.88 4.51 5.77c.15-.3.28-.56.28-.75 0-1.58 1.95-4.25 9.25-4.25 1.47 0 2.81.11 3.98.33.58-.52 1.41-.85 2.2-.85.66 0 1.24.23 1.68.66a.499.499 0 0 1-.35.85c-.13 0-.43 0-.61.28 1.73.9 2.36 2.1 2.36 2.97 0 .22.16.61.31.98.34.83.76 1.86.31 2.85-.33.72-1.05 1.26-2.21 1.64-.05.02-.1.03-.16.03-2.12 0-4.21-1.56-5.08-3-2.29 3.33-8.99 4.26-9.93 4.26zm7.5-10c-6.77 0-8.25 2.35-8.25 3.25 0 .43-.19.8-.38 1.2-.49.98-1.05 2.09 1.34 4.54 1.74-.1 8.24-1.41 9.32-4.65.08-.23.31-.37.55-.33.24.04.42.25.42.49 0 .88 2.14 3.2 4.42 3.25.82-.29 1.34-.65 1.54-1.08.27-.59-.03-1.34-.33-2.05-.2-.48-.38-.94-.38-1.36 0-.59-.57-1.54-2.18-2.25a.497.497 0 0 1-.29-.54c.07-.4.23-.73.47-.97-.6-.03-1.33.28-1.74.73-.12.13-.3.19-.47.15-1.16-.26-2.52-.38-4.04-.38z"/><path class="st0" d="M21.31 14.89h-5c-.28 0-.5-.22-.5-.5v-4c0-.28.22-.5.5-.5h5c.28 0 .5.22.5.5v4c0 .28-.23.5-.5.5zm-4.5-1h4v-3h-4v3zm-4.5 1h-5c-.28 0-.5-.22-.5-.5v-2.5c0-.28.22-.5.5-.5s.5.22.5.5v2h4v-3h-1c-.28 0-.5-.22-.5-.5s.22-.5.5-.5h1.5c.28 0 .5.22.5.5v4c0 .28-.23.5-.5.5z"/><path class="st0" d="M15.81 12.89h-3c-.28 0-.5-.22-.5-.5s.22-.5.5-.5h3c.28 0 .5.22.5.5s-.23.5-.5.5z"/></svg>